<?xml version="1.0" encoding="utf-8"?>
<!-- Generator: Adobe Illustrator 27.5.0, SVG Export Plug-In . SVG Version: 6.00 Build 0)  -->
<svg version="1.1" xmlns="http://www.w3.org/2000/svg" xmlns:xlink="http://www.w3.org/1999/xlink" x="0px" y="0px"
	 viewBox="0 0 500 500" style="enable-background:new 0 0 500 500;" xml:space="preserve">
<g id="Background_Simple">
	<g>
		<path style="fill:#92E3A9;" d="M62.626,126.795c1.556-2.555,3.174-5.063,4.864-7.514c22.511-32.62,59.986-54.954,96.407-65.068
			c15.955-4.438,32.337-6.759,48.69-7.353c107.262-3.844,146.665,83.377,181.224,105.866
			c34.559,22.489,87.591,60.901,80.936,141.592c-5.049,61.352-40.438,120.015-105.072,146.71c-7.119,2.949-14.599,5.51-22.431,7.633
			c-14.569,3.953-30.359,6.435-47.372,7.181c-48.866,2.147-88.543-9.47-127.354-38.723c-9.022-6.8-17.995-14.47-29.702-15.31
			c-8.51-0.611-16.578,2.404-7.683,10.515c10.454,9.533-1.608,28.283-28.147,15.257c-44.325-21.757-62.558-68.698-71.148-116.43
			C25.295,252.564,30.406,179.702,62.626,126.795z"/>
		<path style="opacity:0.7;fill:#FFFFFF;" d="M62.626,126.795c1.556-2.555,3.174-5.063,4.864-7.514
			c22.511-32.62,59.986-54.954,96.407-65.068c15.955-4.438,32.337-6.759,48.69-7.353c107.262-3.844,146.665,83.377,181.224,105.866
			c34.559,22.489,87.591,60.901,80.936,141.592c-5.049,61.352-40.438,120.015-105.072,146.71c-7.119,2.949-14.599,5.51-22.431,7.633
			c-14.569,3.953-30.359,6.435-47.372,7.181c-48.866,2.147-88.543-9.47-127.354-38.723c-9.022-6.8-17.995-14.47-29.702-15.31
			c-8.51-0.611-16.578,2.404-7.683,10.515c10.454,9.533-1.608,28.283-28.147,15.257c-44.325-21.757-62.558-68.698-71.148-116.43
			C25.295,252.564,30.406,179.702,62.626,126.795z"/>
	</g>
</g>
<g id="Clouds">
	<path style="fill:none;stroke:#263238;stroke-linecap:round;stroke-linejoin:round;stroke-miterlimit:10;" d="M224.791,96.808
		c0,0-23.676-41.433-52.285-45.379c-28.609-3.946-36.501,24.663-38.474,32.555c-1.973,7.892-16.771-4.933-25.649,0.986
		c-8.878,5.919-10.852,19.73-13.811,20.717c-2.96,0.987-16.771-2.959-20.717,1.973c-3.946,4.933-3.946,4.933-3.946,4.933
		l-38.474,6.906h229.856c0,0,4.932-18.744-6.906-23.676C242.549,90.889,230.71,99.768,224.791,96.808z"/>
	<path style="fill:none;stroke:#263238;stroke-linecap:round;stroke-linejoin:round;stroke-miterlimit:10;" d="M242.186,161.558
		c0,0-15.549-27.21-34.337-29.802c-18.788-2.591-23.971,16.197-25.267,21.38c-1.296,5.183-11.014-3.239-16.844,0.648
		c-5.831,3.887-7.127,12.957-9.07,13.605c-1.944,0.648-11.014-1.944-13.605,1.296c-2.591,3.239-2.591,3.239-2.591,3.239
		l-25.267,4.535h150.953c0,0,3.239-12.309-4.535-15.549C253.847,157.671,246.073,163.502,242.186,161.558z"/>
	<path style="fill:none;stroke:#263238;stroke-linecap:round;stroke-linejoin:round;stroke-miterlimit:10;" d="M439.888,216.68
		c0,0-8.214-14.374-18.138-15.743c-9.925-1.369-12.663,8.556-13.347,11.294c-0.684,2.738-5.818-1.711-8.898,0.342
		c-3.08,2.053-3.764,6.845-4.791,7.187c-1.027,0.342-5.818-1.027-7.187,0.684c-1.369,1.711-1.369,1.711-1.369,1.711l-13.347,2.396
		h79.74c0,0,1.711-6.502-2.396-8.214C446.048,214.627,441.941,217.707,439.888,216.68z"/>
</g>
<g id="Cactus">
	<g>
		<g>
			<path style="fill:#92E3A9;stroke:#263238;stroke-linecap:round;stroke-linejoin:round;stroke-miterlimit:10;" d="
				M180.487,341.103c-1.406-8.9-4.359-25.005-4.359-25.005s-2.181,2.176-3.613,2.56c-1.386-3.489-2.828-6.937-4.316-10.313
				c-2.507-8.276-5.486-18.615-5.486-18.615l-1.333,4.332c-2.232-4.307-4.526-8.391-6.861-12.162
				c-3.365-5.436-6.83-10.372-10.328-14.811c-3.401-5.502-11.923-19.087-13.398-19.456c-1.61-0.402,0.98,5.144,1.681,6.593
				c-16.88-15.702-32.894-18.544-40.781-4.749c-3.908,6.835-5.309,16.859-4.513,28.607l-2.185-3.157c0,0,0,6.939,0.463,10.177
				c0.463,3.238,13.416,42.097,13.416,42.097l-5.089-1.388l25.443,41.634l-8.79-1.85c0,0,17.116,9.715,18.504,11.565
				c0.625,0.834,3.693,2.983,6.875,5.092c21.459,22.148,45.233,34.618,52.084,22.636
				C193.29,395.465,189.269,369.056,180.487,341.103z"/>
			<path style="fill:#263238;stroke:#263238;stroke-linecap:round;stroke-linejoin:round;stroke-miterlimit:10;" d="
				M187.901,404.889c3.508-6.136,3.025-19.473-0.16-35.746c-6.6,7.35-17.732,20.998-23.882,35.469
				C174.926,410.638,184.066,411.597,187.901,404.889z"/>
			<path style="fill:#92E3A9;stroke:#263238;stroke-linecap:round;stroke-linejoin:round;stroke-miterlimit:10;" d="
				M104.228,284.633c1.534,2.477,2,5.844,1.042,7.52c-0.958,1.676-2.978,1.026-4.512-1.452c-1.534-2.477-2-5.844-1.042-7.52
				C100.675,281.505,102.695,282.155,104.228,284.633z"/>
			<path style="fill:#92E3A9;stroke:#263238;stroke-linecap:round;stroke-linejoin:round;stroke-miterlimit:10;" d="
				M113.785,325.192c1.534,2.477,2,5.844,1.042,7.52c-0.958,1.676-2.978,1.026-4.512-1.452c-1.534-2.477-2-5.844-1.042-7.52
				C110.231,322.064,112.251,322.714,113.785,325.192z"/>
			<path style="fill:#92E3A9;stroke:#263238;stroke-linecap:round;stroke-linejoin:round;stroke-miterlimit:10;" d="
				M134.042,322.697c1.534,2.477,2,5.844,1.042,7.52c-0.958,1.676-2.978,1.026-4.512-1.452c-1.534-2.477-2-5.844-1.042-7.52
				S132.508,320.219,134.042,322.697z"/>
			<path style="fill:#92E3A9;stroke:#263238;stroke-linecap:round;stroke-linejoin:round;stroke-miterlimit:10;" d="
				M145.888,366.729c1.534,2.477,2,5.844,1.042,7.52c-0.958,1.676-2.978,1.026-4.512-1.452c-1.534-2.477-2-5.844-1.042-7.52
				C142.335,363.602,144.354,364.251,145.888,366.729z"/>
			<path style="fill:#92E3A9;stroke:#263238;stroke-linecap:round;stroke-linejoin:round;stroke-miterlimit:10;" d="
				M169.974,359.024c1.534,2.477,2,5.844,1.042,7.52c-0.958,1.676-2.978,1.026-4.512-1.452c-1.534-2.477-2-5.844-1.042-7.52
				C166.421,355.896,168.44,356.546,169.974,359.024z"/>
			<path style="fill:#92E3A9;stroke:#263238;stroke-linecap:round;stroke-linejoin:round;stroke-miterlimit:10;" d="
				M155.881,305.417c1.534,2.477,2,5.844,1.042,7.52c-0.958,1.676-2.978,1.026-4.512-1.452c-1.534-2.477-2-5.844-1.042-7.52
				C152.328,302.289,154.348,302.939,155.881,305.417z"/>
			<path style="fill:#92E3A9;stroke:#263238;stroke-linecap:round;stroke-linejoin:round;stroke-miterlimit:10;" d="
				M123.191,263.246c1.534,2.477,2,5.844,1.042,7.52c-0.958,1.676-2.978,1.026-4.512-1.452c-1.534-2.477-2-5.844-1.042-7.52
				C119.638,260.119,121.658,260.769,123.191,263.246z"/>
		</g>
		<g>
			<g>
				<path style="fill:#92E3A9;stroke:#263238;stroke-linecap:round;stroke-linejoin:round;stroke-miterlimit:10;" d="
					M337.933,171.867c0,44.381-33.697,102.423-62.43,102.423s-62.43-58.042-62.43-102.423c0-44.381,27.951-80.359,62.43-80.359
					S337.933,127.486,337.933,171.867z"/>
				<path style="fill:#92E3A9;stroke:#263238;stroke-linecap:round;stroke-linejoin:round;stroke-miterlimit:10;" d="
					M262.026,123.741c0,2.914-2.362,5.276-5.276,5.276c-2.914,0-5.276-2.362-5.276-5.276c0-2.914,2.362-5.276,5.276-5.276
					C259.664,118.465,262.026,120.827,262.026,123.741z"/>
				<path style="fill:#92E3A9;stroke:#263238;stroke-linecap:round;stroke-linejoin:round;stroke-miterlimit:10;" d="
					M239.318,156.083c0,2.914-2.362,5.276-5.276,5.276c-2.914,0-5.276-2.362-5.276-5.276c0-2.914,2.362-5.276,5.276-5.276
					C236.956,150.807,239.318,153.169,239.318,156.083z"/>
				<path style="fill:#92E3A9;stroke:#263238;stroke-linecap:round;stroke-linejoin:round;stroke-miterlimit:10;" d="
					M271.153,174.681c0,2.914-2.362,5.276-5.276,5.276c-2.914,0-5.276-2.362-5.276-5.276c0-2.914,2.362-5.276,5.276-5.276
					C268.791,169.405,271.153,171.767,271.153,174.681z"/>
				<path style="fill:#92E3A9;stroke:#263238;stroke-linecap:round;stroke-linejoin:round;stroke-miterlimit:10;" d="
					M248.649,211.246c0,2.914-2.362,5.276-5.276,5.276c-2.914,0-5.276-2.362-5.276-5.276c0-2.914,2.362-5.276,5.276-5.276
					C246.287,205.971,248.649,208.333,248.649,211.246z"/>
				<path style="fill:#92E3A9;stroke:#263238;stroke-linecap:round;stroke-linejoin:round;stroke-miterlimit:10;" d="
					M290.784,230.683c0,2.914-2.362,5.276-5.276,5.276s-5.276-2.362-5.276-5.276c0-2.914,2.362-5.276,5.276-5.276
					S290.784,227.77,290.784,230.683z"/>
				<path style="fill:#92E3A9;stroke:#263238;stroke-linecap:round;stroke-linejoin:round;stroke-miterlimit:10;" d="
					M318.663,186.493c0,2.914-2.362,5.276-5.276,5.276c-2.914,0-5.276-2.362-5.276-5.276s2.362-5.276,5.276-5.276
					C316.301,181.217,318.663,183.579,318.663,186.493z"/>
				<path style="fill:#92E3A9;stroke:#263238;stroke-linecap:round;stroke-linejoin:round;stroke-miterlimit:10;" d="
					M309.049,130.393c0,2.914-2.362,5.276-5.276,5.276c-2.914,0-5.276-2.362-5.276-5.276c0-2.914,2.362-5.276,5.276-5.276
					C306.687,125.117,309.049,127.479,309.049,130.393z"/>
			</g>
			<g>
				<path style="fill:#92E3A9;stroke:#263238;stroke-linecap:round;stroke-linejoin:round;stroke-miterlimit:10;" d="
					M385.013,113.124l2.692-1.492c0,0-5.895-1.927-9.675-2.97c-3.838-1.591-8.314-2.423-12.992-2.45l2.203-1.803
					c0,0-10.432,1.605-12.238,2.407c-0.662,0.294-2.405,1.021-4.346,1.823c-1.166,0.413-2.307,0.891-3.429,1.412
					c-2.136,0.877-3.86,1.581-3.86,1.581l2.608-5.016c0,0-2.207,2.006-3.611,3.21c-1.404,1.204-3.21,5.016-3.21,5.016l-0.101,0.481
					c-9.296,8.008-14.436,20.231-8.81,25.773c2.724,2.684,8.35,4.161,14.974,4.555c3.414,1.181,6.577,2.294,6.577,2.294
					l-1.806-1.605c0,0,5.617,0,8.426,0c2.809,0,18.858-4.012,18.858-4.012l-3.227-1.255c0.414-0.18,0.818-0.366,1.212-0.556
					c1.313-0.351,3.267-0.908,5.225-1.599c3.41-1.204,8.225-8.627,8.225-8.627l-2.432,1.337
					C390.562,125.498,390.433,118.463,385.013,113.124z"/>
				<path style="fill:#92E3A9;stroke:#263238;stroke-linecap:round;stroke-linejoin:round;stroke-miterlimit:10;" d="
					M372.118,114.868c-0.873,0.446-2.148,0.248-2.848-0.441c-0.7-0.689-0.559-1.61,0.314-2.055c0.873-0.446,2.148-0.249,2.848,0.441
					C373.131,113.502,372.991,114.422,372.118,114.868z"/>
				<path style="fill:#92E3A9;stroke:#263238;stroke-linecap:round;stroke-linejoin:round;stroke-miterlimit:10;" d="
					M356.972,114.445c-0.873,0.446-2.148,0.249-2.848-0.441s-0.559-1.61,0.314-2.056c0.873-0.446,2.148-0.249,2.848,0.441
					C357.986,113.079,357.845,113.999,356.972,114.445z"/>
				<path style="fill:#92E3A9;stroke:#263238;stroke-linecap:round;stroke-linejoin:round;stroke-miterlimit:10;" d="
					M359.046,124.823c-0.873,0.446-2.148,0.249-2.848-0.441c-0.7-0.689-0.559-1.61,0.314-2.056c0.873-0.446,2.148-0.249,2.848,0.441
					C360.059,123.457,359.919,124.377,359.046,124.823z"/>
				<path style="fill:#92E3A9;stroke:#263238;stroke-linecap:round;stroke-linejoin:round;stroke-miterlimit:10;" d="
					M342.684,125.095c-0.873,0.446-2.148,0.248-2.848-0.441c-0.7-0.689-0.559-1.61,0.314-2.056s2.148-0.249,2.848,0.441
					C343.697,123.729,343.557,124.649,342.684,125.095z"/>
				<path style="fill:#92E3A9;stroke:#263238;stroke-linecap:round;stroke-linejoin:round;stroke-miterlimit:10;" d="
					M346.98,138.038c-0.873,0.446-2.148,0.249-2.848-0.441c-0.7-0.689-0.559-1.61,0.314-2.056c0.873-0.446,2.148-0.249,2.848,0.441
					C347.993,136.672,347.853,137.592,346.98,138.038z"/>
				<path style="fill:#92E3A9;stroke:#263238;stroke-linecap:round;stroke-linejoin:round;stroke-miterlimit:10;" d="
					M366.917,137.871c-0.873,0.446-2.148,0.248-2.848-0.441c-0.7-0.689-0.559-1.61,0.314-2.056c0.873-0.446,2.148-0.248,2.848,0.441
					C367.931,136.505,367.791,137.425,366.917,137.871z"/>
				<path style="fill:#92E3A9;stroke:#263238;stroke-linecap:round;stroke-linejoin:round;stroke-miterlimit:10;" d="
					M381.418,127.011c-0.873,0.446-2.148,0.249-2.848-0.441c-0.7-0.689-0.559-1.61,0.314-2.056s2.148-0.248,2.848,0.441
					C382.432,125.645,382.291,126.565,381.418,127.011z"/>
			</g>
			<g>
				<path style="fill:#92E3A9;stroke:#263238;stroke-linecap:round;stroke-linejoin:round;stroke-miterlimit:10;" d="
					M249.452,90.703c0,0,4.893,8.052,2.425,14.407c-2.467,6.355-8.392,8.82-12.692,9.244c-4.3,0.424-15.267-7.44-15.267-7.44
					l23.988-18.854L249.452,90.703z"/>
				<path style="fill:#FFFFFF;stroke:#263238;stroke-linecap:round;stroke-linejoin:round;stroke-miterlimit:10;" d="
					M215.903,78.133c0,0-1.161-2.14-0.058-5.696c1.103-3.556,2.734-4.965,2.734-4.965l3.066,2.754c0,0,0.979-3.302,1.854-4.45
					c0.875-1.148,2.891-2.055,2.891-2.055s2.11,1.058,3.34,4.777s1.23,3.719,1.23,3.719s1.563-2.987,3.703-4.149
					c2.14-1.161,3.785-1.304,3.785-1.304l1.069,5.559c0,0,3.145-1.931,5.174-1.572c2.029,0.359-0.131-0.379,2.029,0.359
					c2.16,0.738,0.789,2.904,0.052,5.063c-0.738,2.16-1.482,3.686-1.482,3.686l4.939,0.203c0,0,2.335,5.546,1.232,9.102
					c-1.103,3.556-6.761,7.411-6.761,7.411s1.403,0.998,0.796,3.536s-5.123,6.635-8.522,8.442c-3.4,1.807-9.5-0.536-9.5-0.536
					s-3.387,3.073-5.546,2.335s-2.955-4.274-2.955-4.274s-3.289,0.287-5.964-1.332c-2.675-1.618-4.6-4.131-4.6-4.131l2.506-2.557
					c0,0-5.715-1.841-6.746-3.603s-1.031-1.762-1.031-1.762l4.633-4.984c0,0-3.588-4.268-3.868-6.923
					c-0.28-2.656-0.039-3.797-0.039-3.797S211.447,75.646,215.903,78.133z"/>
				<path style="fill:#FFFFFF;stroke:#263238;stroke-linecap:round;stroke-linejoin:round;stroke-miterlimit:10;" d="
					M218.275,80.471c0,0,0.15-4.258,0.32-6.581c0.17-2.323,0.928-3.879,0.928-3.879s4.278,2.085,5.833,2.843l3.899,2.862
					c0,0,0.18-1.356,1.706-3.5c1.526-2.144,1.526-2.144,1.526-2.144s2.732,2.294,3.529,4.607c0.798,2.313,0.798,2.313,0.798,2.313
					l5.006-2.373c0,0,1.026,5.794,0.478,8.895c-0.549,3.101-2.643,6.411-2.643,6.411s-0.719,5.425-4.558,8.366
					c-3.84,2.941-10.202,5.134-12.725,4.386s-4.856-1.885-4.856-1.885l2.862-3.899c0,0-5.425-0.719-6.98-1.477
					c-1.555-0.758-1.555-0.758-1.555-0.758l4.408-4.108c0,0-0.588-0.768-3.131-3.451c-2.542-2.683-3.748-7.12-3.748-7.12
					L218.275,80.471z"/>
				<path style="fill:#FFFFFF;stroke:#263238;stroke-linecap:round;stroke-linejoin:round;stroke-miterlimit:10;" d="
					M242.296,83.515l-4.582-1.68c0,0-1.501,1.788-1.469,4.952c0.032,3.164-0.177,7.471-0.177,7.471s-2.669-0.986-6.081-0.444
					c-3.413,0.541-5.174,1.572-5.174,1.572s-0.457,4.815,3.098,5.918"/>
				<path style="fill:#FFFFFF;stroke:#263238;stroke-linecap:round;stroke-linejoin:round;stroke-miterlimit:10;" d="
					M231.892,106.707c0,0,1.99-3.438,5.129-6.002c3.139-2.564,7.68-4.129,7.68-4.129s0.301-7.725,1.541-10.27
					c1.24-2.545,2.232-4.58,2.232-4.58"/>
				<path style="fill:#FFFFFF;stroke:#263238;stroke-linecap:round;stroke-linejoin:round;stroke-miterlimit:10;" d="
					M229.988,93.813c0,0,2.499-3.19,3.615-5.48c1.116-2.29,1.182-8.241-0.189-6.075c-1.37,2.166-1.605,3.941-1.605,3.941
					s-1.193-5.305-2.061-3.524c-0.868,1.781-0.203,4.939-0.203,4.939s-4.463-3.119-3.68-0.849s1.931,3.145,1.931,3.145
					s-3.686-1.482-3.798,0.039c-0.111,1.52,2.812,2.63,2.812,2.63l-1.997,2.805L229.988,93.813z"/>
			</g>
			<g>
				<path style="fill:#92E3A9;stroke:#263238;stroke-linecap:round;stroke-linejoin:round;stroke-miterlimit:10;" d="
					M290.367,78.136c0,0-4.299,16.064-0.226,23.983c4.073,7.919,12.897,10.408,19.911,8.598c7.014-1.81,12.444-10.86,13.123-15.386
					c0.679-4.525,0.453-11.992-9.503-17.196C303.716,72.932,292.177,74.063,290.367,78.136z"/>
				<g>
					<path style="fill:#FFFFFF;stroke:#263238;stroke-linecap:round;stroke-linejoin:round;stroke-miterlimit:10;" d="
						M293.535,78.588c0,0-2.715,1.131-2.941,4.751c-0.226,3.62-0.453,7.919-0.453,7.919s2.489-0.679,3.846-0.452
						c1.358,0.226,9.503,0,9.503,0s1.131,2.489,2.036,3.62c0.905,1.131,4.751,3.394,4.751,3.394s2.941,0,4.525-3.168
						c1.584-3.168,2.761-5.417,2.761-5.417s2.669,4.512,5.61,6.096c2.941,1.584,6.335,3.168,6.335,3.168s4.073-1.81,2.489-6.109
						s-5.204-7.919-5.204-7.919s4.525,0.226,6.335,0.452c1.81,0.226,2.941-0.452,2.941-0.452l-2.489-3.846
						c0,0,3.62-2.489,5.43-3.846c1.81-1.357,2.941-3.394,2.941-3.394s-0.905-0.679-5.657-1.584
						c-4.751-0.905-10.182,0.452-10.182,0.452l3.846-4.073l2.489-7.24c0,0-7.919-0.905-10.86,0
						c-2.941,0.905-7.014,2.715-7.014,2.715s1.358-2.941,1.358-4.751c0-1.81-0.453-3.168-0.453-3.168s-3.846,1.584-4.978,2.489
						c-1.131,0.905-2.941,3.394-2.941,3.394s0.854-5.398-2.062-5.64c-2.916-0.243-5.178-1.374-5.857-1.6
						c-0.679-0.226-2.036,2.263-2.036,4.073c0,1.81,0.905,6.788,0.905,6.788s-1.81-2.036-5.883-1.357
						c-4.073,0.679-5.883,1.357-6.561,2.036c-0.679,0.679,2.263,2.489,4.073,3.62c1.81,1.131,4.525,2.715,4.525,2.715
						s-5.204,1.131-6.788,4.978c-1.584,3.846-1.584,3.846-1.584,3.846L293.535,78.588z"/>
					<path style="fill:#FFFFFF;stroke:#263238;stroke-linecap:round;stroke-linejoin:round;stroke-miterlimit:10;" d="
						M303.545,70.977c0,0,0.978-1.304-2.934-7.825c-3.913-6.521-15.65-8.803-13.042-4.565c2.608,4.239,8.151,10.759,8.151,10.759
						s-4.565-3.26-7.499,0c-2.934,3.26-4.891,4.891-2.282,5.869c2.608,0.978,9.781,3.26,9.781,3.26l4.891,1.63
						c0,0-1.956,2.282-1.956,6.847c0,4.565,1.63,6.195,1.63,6.195s4.565,0,7.825-2.934c3.26-2.934,5.217-4.565,5.217-4.565
						s1.956,1.304,4.239,3.587c2.282,2.282,7.499,4.565,7.499,4.565s0.326-3.913-0.978-5.543c-1.304-1.63-2.934-2.934-2.934-2.934
						s4.891-3.261,6.195-3.912c1.304-0.652,5.869-4.565,5.869-4.565s-3.26-1.956-6.195-1.956c-2.934,0-6.195,0-6.195,0
						s4.565-5.543,5.543-8.477c0.978-2.934,0.978-5.217,0.978-5.217s-4.239,1.304-8.477,2.608c-4.239,1.304-7.499,3.586-7.499,3.586
						s1.304-3.26-0.326-5.869c-1.63-2.608-4.565-5.543-5.543-5.543c-0.978,0-2.282,3.586-2.282,6.521
						C303.219,65.434,303.545,70.977,303.545,70.977z"/>
					<path style="fill:none;stroke:#263238;stroke-linecap:round;stroke-linejoin:round;stroke-miterlimit:10;" d="M307.563,81.53
						c0,0-2.941-0.679-4.978-3.62c-2.036-2.941-3.62-6.562-1.81-5.204c1.81,1.357,2.715,3.62,3.394,3.62s-2.832-6.173-0.624-5.349
						c2.208,0.824,2.66,4.444,2.66,4.444s0.226-3.846,0.679-4.525c0.453-0.679,1.131,0.905,1.131,2.715
						c0,1.81,1.131-4.525,2.715-3.168c1.584,1.357-0.679,6.788-0.679,6.788s2.263-5.883,3.394-4.751c1.131,1.131,0,3.394,0,3.394
						s1.358-3.846,2.263-1.584c0.905,2.263-0.453,4.299-0.453,4.299s3.62-2.941,3.846-0.679c0.226,2.263-1.358,2.715-1.358,2.715
						s2.263,1.584,0.679,2.489c-1.584,0.905-3.62,0.679-3.62,0.679s-1.584,1.584-3.62,1.584c-2.036,0-1.584-2.715-1.584-2.715
						s-2.036,2.036-2.715,1.584S307.563,81.53,307.563,81.53z"/>
				</g>
			</g>
		</g>
		<g>
			<g>
				<path style="fill:#FFFFFF;stroke:#263238;stroke-linecap:round;stroke-linejoin:round;stroke-miterlimit:10;" d="
					M353.774,299.434l28.944-27.453l-25.353,30.8c-0.804,0.977-2.218,1.184-3.268,0.479l0,0
					C352.788,302.383,352.631,300.518,353.774,299.434z"/>
				<g>
					<path style="fill:#92E3A9;stroke:#263238;stroke-linecap:round;stroke-linejoin:round;stroke-miterlimit:10;" d="
						M319.313,389.5c-39.324,36.588-113.706,59.769-133.278,38.733c-19.572-21.035,8.901-93.556,48.225-130.145
						c39.324-36.589,90.242-45.786,113.728-20.544C371.474,302.788,358.636,352.912,319.313,389.5z"/>
					<path style="fill:#263238;stroke:#263238;stroke-linecap:round;stroke-linejoin:round;stroke-miterlimit:10;" d="
						M226.393,306.038c4.536,5.56,11.473,11.573,11.473,11.573s10.225-2.045,17.126-4.857c3.358-1.368,6.165-4.187,8.169-6.722
						c1.889,0.007,3.48-0.198,4.612-0.691c5.879-2.556,5.368-10.991,5.368-10.991s3.323,9.969,7.157,9.969
						c3.834,0,27.862-14.57,28.885-19.938c1.022-5.368-10.736-9.458-10.736-9.458s5.879-2.045,8.435-7.924
						c0.551-1.268,0.952-2.472,1.244-3.621c-23.296,1.018-50.608,13.07-73.867,34.711
						C231.582,300.58,228.958,303.242,226.393,306.038z"/>
					<path style="fill:#92E3A9;stroke:#263238;stroke-linecap:round;stroke-linejoin:round;stroke-miterlimit:10;" d="
						M310.248,294.253c-2.582,2.402-6.283,2.62-8.268,0.487c-1.985-2.133-1.501-5.81,1.081-8.212
						c2.582-2.402,6.283-2.62,8.268-0.487C313.313,288.174,312.83,291.851,310.248,294.253z"/>
					<path style="fill:#92E3A9;stroke:#263238;stroke-linecap:round;stroke-linejoin:round;stroke-miterlimit:10;" d="
						M266.123,304.291c-2.582,2.402-6.283,2.62-8.268,0.487c-1.985-2.133-1.501-5.81,1.081-8.212
						c2.582-2.402,6.283-2.62,8.268-0.487C269.188,298.213,268.704,301.889,266.123,304.291z"/>
					<path style="fill:#92E3A9;stroke:#263238;stroke-linecap:round;stroke-linejoin:round;stroke-miterlimit:10;" d="
						M271.33,342.931c-2.582,2.402-6.283,2.62-8.268,0.487c-1.985-2.133-1.501-5.81,1.081-8.212c2.582-2.402,6.283-2.62,8.268-0.487
						C274.395,336.852,273.911,340.528,271.33,342.931z"/>
					<path style="fill:#92E3A9;stroke:#263238;stroke-linecap:round;stroke-linejoin:round;stroke-miterlimit:10;" d="
						M223.602,356.6c-2.582,2.402-6.284,2.62-8.268,0.487c-1.985-2.133-1.501-5.81,1.081-8.212c2.582-2.402,6.283-2.62,8.268-0.487
						C226.667,350.521,226.183,354.198,223.602,356.6z"/>
					<path style="fill:#92E3A9;stroke:#263238;stroke-linecap:round;stroke-linejoin:round;stroke-miterlimit:10;" d="
						M235.081,403.472c-2.582,2.402-6.283,2.62-8.268,0.487c-1.985-2.133-1.501-5.81,1.081-8.212
						c2.582-2.402,6.283-2.62,8.268-0.487C238.147,397.394,237.663,401.07,235.081,403.472z"/>
					<path style="fill:#92E3A9;stroke:#263238;stroke-linecap:round;stroke-linejoin:round;stroke-miterlimit:10;" d="
						M293.227,387.451c-2.582,2.402-6.283,2.62-8.268,0.487c-1.985-2.133-1.501-5.81,1.081-8.212
						c2.582-2.402,6.283-2.62,8.268-0.487C296.293,381.372,295.809,385.049,293.227,387.451z"/>
					<path style="fill:#92E3A9;stroke:#263238;stroke-linecap:round;stroke-linejoin:round;stroke-miterlimit:10;" d="
						M336.385,334.162c-2.582,2.402-6.284,2.62-8.268,0.487c-1.985-2.133-1.501-5.81,1.081-8.212
						c2.582-2.402,6.284-2.62,8.268-0.487C339.451,328.083,338.967,331.76,336.385,334.162z"/>
				</g>
				<path style="fill:#FFFFFF;stroke:#263238;stroke-linecap:round;stroke-linejoin:round;stroke-miterlimit:10;" d="
					M204.346,331.55l-18.69-35.244l22.877,32.681c0.725,1.036,0.546,2.454-0.414,3.277l0,0
					C206.923,333.29,205.085,332.942,204.346,331.55z"/>
				<path style="fill:#FFFFFF;stroke:#263238;stroke-linecap:round;stroke-linejoin:round;stroke-miterlimit:10;" d="
					M278.002,412.561l39.389,6.321l-39.867-1.435c-1.264-0.046-2.288-1.043-2.366-2.305l0,0
					C275.061,413.569,276.446,412.312,278.002,412.561z"/>
				<path style="fill:#FFFFFF;stroke:#263238;stroke-linecap:round;stroke-linejoin:round;stroke-miterlimit:10;" d="
					M348.022,343.956l39.389,6.321l-39.867-1.435c-1.264-0.046-2.288-1.043-2.366-2.305v0
					C345.081,344.963,346.467,343.706,348.022,343.956z"/>
				<path style="fill:#FFFFFF;stroke:#263238;stroke-linecap:round;stroke-linejoin:round;stroke-miterlimit:10;" d="
					M194.849,378.666l-39.056-8.127l39.758,3.268c1.261,0.104,2.237,1.147,2.257,2.412l0,0
					C197.833,377.795,196.391,378.987,194.849,378.666z"/>
			</g>
			<g>
				<path style="fill:#92E3A9;stroke:#263238;stroke-linecap:round;stroke-linejoin:round;stroke-miterlimit:10;" d="
					M332.353,256.613c0,0-4.605,8.22-1.915,14.484c2.69,6.264,8.698,8.519,13.01,8.79c4.312,0.271,14.995-7.975,14.995-7.975
					l-24.638-17.995L332.353,256.613z"/>
				<path style="fill:#FFFFFF;stroke:#263238;stroke-linecap:round;stroke-linejoin:round;stroke-miterlimit:10;" d="
					M365.437,242.865c0,0,1.085-2.18-0.143-5.695c-1.228-3.515-2.908-4.865-2.908-4.865l-2.967,2.86c0,0-1.095-3.265-2.01-4.382
					c-0.915-1.117-2.962-1.952-2.962-1.952s-2.072,1.132-3.169,4.892c-1.098,3.76-1.098,3.76-1.098,3.76s-1.667-2.93-3.847-4.015
					c-2.18-1.085-3.828-1.17-3.828-1.17l-0.872,5.594c0,0-3.211-1.819-5.227-1.388c-2.015,0.431,0.117-0.383-2.015,0.431
					c-2.132,0.813-0.686,2.93,0.127,5.062c0.813,2.132,1.611,3.632,1.611,3.632l-4.929,0.377c0,0-2.138,5.625-0.91,9.14
					c1.228,3.515,7.018,7.168,7.018,7.168s-1.367,1.047-0.67,3.562c0.696,2.515,5.354,6.45,8.815,8.136s9.475-0.871,9.475-0.871
					s3.493,2.951,5.625,2.138c2.132-0.813,2.802-4.376,2.802-4.376s3.297,0.17,5.913-1.542c2.616-1.712,4.451-4.291,4.451-4.291
					l-2.595-2.467c0,0,5.647-2.041,6.615-3.839c0.968-1.797,0.968-1.797,0.968-1.797l-4.806-4.818c0,0,3.435-4.392,3.621-7.055
					c0.186-2.664-0.095-3.796-0.095-3.796S369.803,240.223,365.437,242.865z"/>
				<path style="fill:#FFFFFF;stroke:#263238;stroke-linecap:round;stroke-linejoin:round;stroke-miterlimit:10;" d="
					M363.15,245.286c0,0-0.3-4.25-0.552-6.566c-0.252-2.316-1.064-3.844-1.064-3.844s-4.201,2.234-5.729,3.047l-3.795,2.998
					c0,0-0.228-1.349-1.828-3.438s-1.601-2.089-1.601-2.089s-2.649,2.389-3.365,4.729c-0.715,2.34-0.715,2.34-0.715,2.34
					l-5.087-2.194c0,0-0.821,5.826-0.163,8.906c0.658,3.08,2.868,6.314,2.868,6.314s0.91,5.396,4.851,8.2
					c3.941,2.804,10.377,4.771,12.871,3.934c2.495-0.837,4.787-2.056,4.787-2.056l-2.998-3.795c0,0,5.396-0.91,6.923-1.722
					c1.528-0.813,1.528-0.813,1.528-0.813l-4.55-3.95c0,0,0.561-0.788,3.007-3.559c2.446-2.771,3.495-7.248,3.495-7.248
					L363.15,245.286z"/>
				<path style="fill:#FFFFFF;stroke:#263238;stroke-linecap:round;stroke-linejoin:round;stroke-miterlimit:10;" d="
					M339.25,249.176l4.519-1.841c0,0,1.563,1.734,1.643,4.897s0.441,7.46,0.441,7.46s2.632-1.079,6.062-0.659
					c3.429,0.42,5.227,1.388,5.227,1.388s0.627,4.796-2.888,6.024"/>
				<path style="fill:#FFFFFF;stroke:#263238;stroke-linecap:round;stroke-linejoin:round;stroke-miterlimit:10;" d="
					M350.468,271.986c0,0-2.111-3.366-5.338-5.817c-3.227-2.451-7.821-3.855-7.821-3.855s-0.574-7.71-1.903-10.209
					s-2.392-4.498-2.392-4.498"/>
				<path style="fill:#FFFFFF;stroke:#263238;stroke-linecap:round;stroke-linejoin:round;stroke-miterlimit:10;" d="
					M351.915,259.033c0,0-2.611-3.1-3.807-5.349c-1.196-2.249-1.472-8.194-0.026-6.077c1.446,2.116,1.744,3.882,1.744,3.882
					s1.005-5.344,1.936-3.594c0.93,1.749,0.377,4.929,0.377,4.929s4.35-3.275,3.648-0.978c-0.702,2.297-1.819,3.211-1.819,3.211
					s3.632-1.611,3.796-0.095c0.165,1.515-2.717,2.727-2.717,2.727l2.095,2.733L351.915,259.033z"/>
			</g>
			<g>
				<path style="fill:#FFFFFF;stroke:#263238;stroke-linecap:round;stroke-linejoin:round;stroke-miterlimit:10;" d="
					M405.389,299.56c0,0,6.799,0.308,9.571,0.798c2.772,0.49,6.549,1.518,6.549,1.518l-6.283,3.002l5.311,0.208
					c0,0-3.343,4.477-7.337,8.406c-3.995,3.929-9.292,6.762-11.338,6.96c-2.046,0.198-7.933-0.419-9.823-2.276
					c-1.89-1.858-2.603-7.214-1.212-10.647c1.391-3.433,4.354-6.273,6.167-7.242C398.805,299.316,405.389,299.56,405.389,299.56z"/>
				<path style="fill:#FFFFFF;stroke:#263238;stroke-linecap:round;stroke-linejoin:round;stroke-miterlimit:10;" d="
					M390.661,301.521c0,0,3.288-3.91,7.658-4.454c4.37-0.544,11.467,0.322,12.537,0.646c1.07,0.324,2.075,0.862,2.075,0.862
					s-7.269,3.17-10.615,4.96c-3.346,1.789-10.057,4.661-10.057,4.661s9.571,0.798,14.304,0.597
					c4.733-0.201,9.094-1.099,9.094-1.099s-7.395,6.286-12.703,8.766c-5.307,2.48-10.858,3.835-10.858,3.835
					s10.751-0.012,14.181-1.309c3.43-1.297,6.99-3.021,6.99-3.021s-2.821,5.453-7.302,7.132c-4.481,1.679-13.409,1.076-14.712-0.02
					c-1.303-1.096-3.193-2.954-3.193-2.954s-1.309-6.471-1.507-8.517c-0.198-2.046-0.061-4.808-0.061-4.808L390.661,301.521z"/>
				<path style="fill:#92E3A9;stroke:#263238;stroke-linecap:round;stroke-linejoin:round;stroke-miterlimit:10;" d="
					M358.978,310.464c0,0,14.503-3.802,19.88-5.429c5.377-1.626,9.154-2.098,9.154-2.098s1.047-3.07,2.338-5.015
					c1.29-1.945,3.586-3.352,3.586-3.352s-2.999,4.114-3.275,6.951c-0.276,2.837,0.165,6.008,0.165,6.008s3.356-1.436,4.192-1.883
					c0.836-0.447,3.3-0.869,3.3-0.869s-2.685,2.691-3.716,3.78c-1.031,1.089-2.406,2.542-3.307,3.203
					c-0.901,0.661-1.31,1.238-0.704,2.707c0.606,1.469,0.655,3.236,1.446,3.709c0.791,0.473,1.592,1.3,1.592,1.3
					s1.806,1.365,2.94,1.475c1.135,0.11,1.851,0.444,2.344,0.36s4.241-0.116,4.241-0.116s-3.142,1.501-6.312,1.942
					c-3.171,0.441-3.515,0.804-4.156,0.609c-0.642-0.194-1.433-0.668-1.433-0.668s-10.382,0.48-16.762-0.052
					c-6.38-0.532-10.236-0.054-14.73-1.416c-4.493-1.362-5.035-3.045-5.466-5.862C353.864,312.93,358.978,310.464,358.978,310.464z"
					/>
				<path style="fill:none;stroke:#263238;stroke-linecap:round;stroke-linejoin:round;stroke-miterlimit:10;" d="M390.873,321.377
					c0,0-1.251-4.813-2.56-9.027c-1.309-4.214-0.666-7.961-0.666-7.961"/>
			</g>
			<g>
				<path style="fill:#FFFFFF;stroke:#263238;stroke-linecap:round;stroke-linejoin:round;stroke-miterlimit:10;" d="
					M236.779,284.421c0,0-7.668,4.601-4.601,10.736c3.067,6.135,14.57,16.104,14.57,16.104s10.225-2.045,17.126-4.857
					c6.902-2.812,11.503-11.758,11.503-11.758S244.703,279.82,236.779,284.421z"/>
				<path style="fill:#FFFFFF;stroke:#263238;stroke-linecap:round;stroke-linejoin:round;stroke-miterlimit:10;" d="
					M228.088,251.191c0,0-15.081-0.256-16.359,5.879c-1.278,6.135,0.767,17.126,6.646,23.772c5.879,6.646,21.727,5.879,21.727,5.879
					s-5.368,3.579,3.579,6.646c8.947,3.067,27.095,8.18,32.974,5.624c5.879-2.556,5.368-10.992,5.368-10.992
					s3.323,9.969,7.157,9.969c3.834,0,27.862-14.57,28.885-19.938c1.022-5.368-10.736-9.458-10.736-9.458s5.879-2.045,8.435-7.924
					c2.556-5.879,2.045-10.48,1.022-13.803c-1.022-3.323-2.301-3.834-3.323-3.579s-22.75,0.767-22.75,0.767
					s10.225-17.638,9.969-23.261c-0.256-5.624-13.803-9.969-17.638-8.435c-3.834,1.534-13.548,20.705-14.059,22.239
					c-0.511,1.534-40.387-9.969-45.755-6.135c-5.368,3.834-9.969,9.202-8.691,14.314
					C215.818,247.867,228.088,251.191,228.088,251.191z"/>
				<path style="fill:#FFFFFF;stroke:#263238;stroke-linecap:round;stroke-linejoin:round;stroke-miterlimit:10;" d="
					M295.555,265.684c0,0,4.868,3.825,9.388-0.695c4.52-4.52,13.909-19.124,11.822-27.469c-2.086-8.345-12.17-20.167-18.429-19.82
					c-6.259,0.348-13.909,1.043-16.69,6.607c-2.782,5.563-10.431,20.515-13.909,23.992c-3.477,3.477-2.086,7.302,4.173,10.779
					C278.17,262.554,295.555,265.684,295.555,265.684z"/>
				<path style="fill:#FFFFFF;stroke:#263238;stroke-linecap:round;stroke-linejoin:round;stroke-miterlimit:10;" d="
					M281.647,242.039c0,0,6.259-13.909,5.911-17.386c-0.348-3.477-5.911-11.475-10.084-12.865
					c-4.173-1.391-11.127-2.782-20.863,1.391c-9.736,4.173-12.17,5.911-9.736,10.084c2.434,4.173,14.256,21.558,16.343,25.383
					c2.086,3.825,7.997,4.868,10.084,1.391C275.388,246.559,281.647,242.039,281.647,242.039z"/>
				<path style="fill:#FFFFFF;stroke:#263238;stroke-linecap:round;stroke-linejoin:round;stroke-miterlimit:10;" d="
					M263.218,248.645c0,0,1.391-6.607-7.302-18.081c-8.693-11.475-10.431-12.518-19.82-9.388
					c-9.388,3.13-18.777,14.604-17.734,18.081c1.043,3.477,2.434,3.825,16.69,7.65c14.256,3.825,24.34,10.084,26.426,8.693
					C263.566,254.209,263.218,248.645,263.218,248.645z"/>
				<path style="fill:#FFFFFF;stroke:#263238;stroke-linecap:round;stroke-linejoin:round;stroke-miterlimit:10;" d="
					M232.271,276.463c0,0-5.563,4.868-2.782,6.607c2.782,1.738,16.69,7.302,23.297,6.954c6.607-0.348,10.084-4.868,11.475-13.213
					c1.391-8.345,4.173-11.822,2.782-15.995c-1.391-4.173-1.391-4.173-1.391-4.173s-23.992,12.865-29.208,14.256
					C231.228,272.29,232.271,276.463,232.271,276.463z"/>
				<path style="fill:#FFFFFF;stroke:#263238;stroke-linecap:round;stroke-linejoin:round;stroke-miterlimit:10;" d="
					M264.609,254.557c0,0-33.033-10.084-39.292-8.345c-6.259,1.739-6.954,12.17-4.868,17.386c2.086,5.216,3.825,11.475,8.693,12.17
					c4.868,0.695,23.297-7.997,29.556-10.431C264.956,262.902,269.129,255.947,264.609,254.557z"/>
				<path style="fill:#FFFFFF;stroke:#263238;stroke-linecap:round;stroke-linejoin:round;stroke-miterlimit:10;" d="
					M265.652,256.643c0,0-3.477,23.992-2.434,29.208c1.043,5.216,10.431,5.563,15.647,1.739
					c5.216-3.825,19.124-18.777,20.515-21.906c1.391-3.129,3.825-7.302-5.564-6.607c-9.388,0.695-14.604-0.695-18.429-2.086
					c-3.465-1.26-6.073-3.661-8.86-1.259C266.238,255.981,265.947,256.283,265.652,256.643z"/>
				<g>
					<path style="fill:#FFFFFF;stroke:#263238;stroke-linecap:round;stroke-linejoin:round;stroke-miterlimit:10;" d="
						M225.311,229.534c0,0,8.92,3.304,11.563,4.295"/>
					<path style="fill:#FFFFFF;stroke:#263238;stroke-linecap:round;stroke-linejoin:round;stroke-miterlimit:10;" d="
						M245.36,233.932c0.723,0.65,1.425,1.383,2.085,2.209"/>
					<path style="fill:#FFFFFF;stroke:#263238;stroke-linecap:round;stroke-linejoin:round;stroke-miterlimit:10;" d="
						M234.231,228.873c0,0,4.546,0.379,9.048,3.431"/>
					<path style="fill:#FFFFFF;stroke:#263238;stroke-linecap:round;stroke-linejoin:round;stroke-miterlimit:10;" d="
						M301.731,238.017c-0.929,0.533-1.853,1.118-2.749,1.758"/>
					<path style="fill:#FFFFFF;stroke:#263238;stroke-linecap:round;stroke-linejoin:round;stroke-miterlimit:10;" d="
						M314.509,233.168c0,0-4.867,0.936-10.232,3.512"/>
					<path style="fill:#FFFFFF;stroke:#263238;stroke-linecap:round;stroke-linejoin:round;stroke-miterlimit:10;" d="
						M304.929,231.847c0,0-7.598,2.973-12.884,9.581"/>
					
						<line style="fill:#FFFFFF;stroke:#263238;stroke-linecap:round;stroke-linejoin:round;stroke-miterlimit:10;" x1="274.205" y1="269.178" x2="285.437" y2="275.785"/>
					<path style="fill:#FFFFFF;stroke:#263238;stroke-linecap:round;stroke-linejoin:round;stroke-miterlimit:10;" d="
						M283.455,281.731c0,0-2.361-5.303-7.953-7.442"/>
				</g>
				<path style="fill:#FFFFFF;stroke:#263238;stroke-linecap:round;stroke-linejoin:round;stroke-miterlimit:10;" d="
					M257.484,268.828c0,0-9.202-2.045-13.036-4.857c-3.834-2.812-2.045-4.857-0.767-3.834c1.278,1.023,12.27,4.601,12.27,4.601
					s-5.624-2.045-9.458-6.135c-3.834-4.09-3.323-5.624-0.256-3.323c3.067,2.301,11.758,8.18,11.758,8.18s-7.157-4.601-9.458-9.458
					c-2.301-4.857-0.256-5.368,1.278-3.834c1.534,1.534,11.758,9.713,11.758,9.713s-4.601-4.857-6.902-10.48
					c-2.301-5.624-0.511-5.879,1.534-4.346c2.045,1.534,7.413,11.247,7.413,11.247s-5.624-18.149-3.834-17.126
					c0,0,1.022-1.023,2.045,1.278c1.022,2.301,3.823,16.188,3.823,16.188s-1.778-14.91-0.755-17.466
					c1.022-2.556,2.301,1.278,2.556,3.323c0.256,2.045,0.767,12.014,0.767,12.014s4.09-16.359,6.135-14.314
					c2.045,2.045-1.053,9.837-1.053,9.837s-3.037,6.522-3.037,7.289c0,0.767,6.646-7.157,7.668-12.014
					c1.022-4.857,2.556-3.834,2.556-0.767s-0.522,6.981-2.812,9.713c-2.289,2.733-3.323,5.112-3.323,5.112s6.902-5.368,10.225-7.924
					c3.323-2.556,4.346,0.511,2.301,2.301c-2.045,1.789-9.202,6.902-9.202,6.902l-2.301,1.789c0,0,12.525-5.879,11.247-2.556
					c-1.278,3.323-4.857,4.857-9.714,6.135c-4.857,1.278-1.534-1.534-4.857,1.278s-5.623,2.556-6.39,2.301
					c-0.767-0.256-4.346,2.301-6.902,1.789c-2.556-0.511,0.511-3.579,0.511-3.579L257.484,268.828z"/>
			</g>
		</g>
		<g>
			<g>
				<path style="fill:#8F8F8F;stroke:#263238;stroke-linecap:round;stroke-linejoin:round;stroke-miterlimit:10;" d="
					M268.464,417.258c0,0-9.74-3.571-18.093-13.665c-8.353-10.094-27.597-15.141-36.333-2.272
					c-8.736,12.869,0.664,22.845,10.198,28.349c9.533,5.504,30.268,10.595,40.111,5.666
					C274.19,430.407,274.943,420.135,268.464,417.258z"/>
				<path style="fill:none;stroke:#263238;stroke-linecap:round;stroke-linejoin:round;stroke-miterlimit:10;" d="M236.503,430.613
					c-0.121,0.722-1.52,1.09-3.125,0.821c-1.605-0.269-2.808-1.072-2.687-1.794c0.121-0.722,1.52-1.09,3.125-0.821
					C235.421,429.087,236.624,429.891,236.503,430.613z"/>
				<path style="fill:none;stroke:#263238;stroke-linecap:round;stroke-linejoin:round;stroke-miterlimit:10;" d="M226.533,418.788
					c-0.121,0.722-1.195,1.144-2.398,0.943s-2.081-0.95-1.96-1.672s1.195-1.144,2.398-0.943S226.654,418.065,226.533,418.788z"/>
				<path style="fill:none;stroke:#263238;stroke-linecap:round;stroke-linejoin:round;stroke-miterlimit:10;" d="M234.874,404.651
					c-0.202,1.204-1.796,1.94-3.561,1.644c-1.765-0.296-3.033-1.511-2.832-2.714c0.201-1.204,1.796-1.94,3.561-1.644
					C233.808,402.232,235.076,403.447,234.874,404.651z"/>
				<path style="fill:none;stroke:#263238;stroke-linecap:round;stroke-linejoin:round;stroke-miterlimit:10;" d="M255.449,419.147
					c-0.228,1.364-1.91,2.219-3.755,1.91c-1.846-0.309-3.156-1.665-2.928-3.029c0.228-1.364,1.91-2.22,3.755-1.911
					C254.366,416.427,255.677,417.783,255.449,419.147z"/>
				<path style="fill:none;stroke:#263238;stroke-linecap:round;stroke-linejoin:round;stroke-miterlimit:10;" d="M258.71,431.791
					c-0.188,1.123-1.772,1.794-3.537,1.499c-1.765-0.296-3.044-1.446-2.856-2.569c0.188-1.123,1.771-1.794,3.537-1.499
					C257.619,429.517,258.897,430.668,258.71,431.791z"/>
			</g>
			<g>
				<path style="fill:#8F8F8F;stroke:#263238;stroke-linecap:round;stroke-linejoin:round;stroke-miterlimit:10;" d="
					M310.746,383.828c0,0-2.13-10.153-10.916-19.873c-8.785-9.72-11.007-29.49,2.987-36.281c13.993-6.791,22.51,3.949,26.584,14.176
					c4.073,10.227,6.124,31.479-0.172,40.509C322.932,391.389,312.66,390.654,310.746,383.828z"/>
				<path style="fill:none;stroke:#263238;stroke-linecap:round;stroke-linejoin:round;stroke-miterlimit:10;" d="M328.567,354.124
					c0.732-0.016,1.298-1.347,1.263-2.974c-0.035-1.627-0.656-2.933-1.388-2.917c-0.732,0.016-1.297,1.347-1.263,2.974
					C327.213,352.834,327.835,354.14,328.567,354.124z"/>
				<path style="fill:none;stroke:#263238;stroke-linecap:round;stroke-linejoin:round;stroke-miterlimit:10;" d="M318.301,342.555
					c0.732-0.016,1.304-1.017,1.279-2.237c-0.026-1.22-0.641-2.197-1.372-2.181c-0.732,0.016-1.305,1.017-1.279,2.237
					C316.955,341.594,317.569,342.571,318.301,342.555z"/>
				<path style="fill:none;stroke:#263238;stroke-linecap:round;stroke-linejoin:round;stroke-miterlimit:10;" d="M303.11,348.772
					c1.22-0.026,2.178-1.498,2.14-3.287c-0.038-1.789-1.058-3.219-2.278-3.193c-1.22,0.026-2.178,1.498-2.14,3.287
					C300.87,347.368,301.89,348.798,303.11,348.772z"/>
				<path style="fill:none;stroke:#263238;stroke-linecap:round;stroke-linejoin:round;stroke-miterlimit:10;" d="M314.491,371.221
					c1.383-0.029,2.471-1.57,2.432-3.441c-0.04-1.871-1.193-3.363-2.576-3.334c-1.383,0.029-2.471,1.57-2.432,3.441
					C311.955,369.757,313.108,371.25,314.491,371.221z"/>
				<path style="fill:none;stroke:#263238;stroke-linecap:round;stroke-linejoin:round;stroke-miterlimit:10;" d="M326.533,376.269
					c1.139-0.024,2.031-1.494,1.993-3.284c-0.038-1.789-0.992-3.22-2.131-3.196c-1.139,0.024-2.031,1.494-1.993,3.284
					C324.44,374.862,325.394,376.293,326.533,376.269z"/>
			</g>
			<g>
				<path style="fill:#8F8F8F;stroke:#263238;stroke-linecap:round;stroke-linejoin:round;stroke-miterlimit:10;" d="
					M345.531,380.09c0,0,3.033-13.223-2.073-29.578c-5.106-16.355,3.088-41.047,23.424-41.444
					c20.336-0.397,24.566,17.022,23.799,31.397c-0.766,14.375-9.975,40.733-22.398,48.006
					C355.859,395.745,344.065,389.244,345.531,380.09z"/>
				<path style="fill:none;stroke:#263238;stroke-linecap:round;stroke-linejoin:round;stroke-miterlimit:10;" d="M382.966,354.584
					c0.878,0.383,2.279-0.889,3.129-2.839c0.85-1.951,0.828-3.842-0.05-4.225c-0.878-0.382-2.279,0.889-3.129,2.839
					C382.066,352.31,382.088,354.201,382.966,354.584z"/>
				<path style="fill:none;stroke:#263238;stroke-linecap:round;stroke-linejoin:round;stroke-miterlimit:10;" d="M377.115,335.223
					c0.878,0.383,2.106-0.493,2.744-1.956c0.638-1.463,0.443-2.959-0.435-3.342c-0.878-0.383-2.106,0.493-2.744,1.956
					C376.043,333.344,376.237,334.84,377.115,335.223z"/>
				<path style="fill:none;stroke:#263238;stroke-linecap:round;stroke-linejoin:round;stroke-miterlimit:10;" d="M355.671,334.281
					c1.463,0.638,3.407-0.585,4.342-2.73c0.935-2.146,0.507-4.402-0.955-5.04c-1.463-0.638-3.407,0.585-4.342,2.73
					C353.78,331.388,354.208,333.644,355.671,334.281z"/>
				<path style="fill:none;stroke:#263238;stroke-linecap:round;stroke-linejoin:round;stroke-miterlimit:10;" d="M356.885,367.172
					c1.658,0.723,3.795-0.51,4.772-2.753c0.978-2.243,0.426-4.647-1.232-5.37c-1.658-0.723-3.795,0.51-4.772,2.753
					C354.676,364.045,355.227,366.45,356.885,367.172z"/>
				<path style="fill:none;stroke:#263238;stroke-linecap:round;stroke-linejoin:round;stroke-miterlimit:10;" d="M368.418,379.764
					c1.365,0.595,3.23-0.662,4.166-2.807c0.935-2.146,0.586-4.367-0.779-4.963c-1.365-0.595-3.23,0.662-4.166,2.807
					C366.704,376.947,367.053,379.169,368.418,379.764z"/>
			</g>
			<g>
				<path style="fill:#8F8F8F;stroke:#263238;stroke-linecap:round;stroke-linejoin:round;stroke-miterlimit:10;" d="
					M296.097,388.915c0,0-8.058-8.914-11.538-24.116c-3.48-15.202-20.381-30.654-35.448-21.375
					c-15.067,9.279-10.475,24.9-3.568,35.784c6.907,10.884,25.285,27.16,37.593,26.991
					C295.444,406.031,301.211,395.384,296.097,388.915z"/>
				<path style="fill:none;stroke:#263238;stroke-linecap:round;stroke-linejoin:round;stroke-miterlimit:10;" d="M257.425,386.615
					c-0.474,0.713-2.061,0.379-3.544-0.746c-1.484-1.125-2.302-2.615-1.828-3.328c0.474-0.713,2.061-0.379,3.544,0.746
					C257.08,384.411,257.899,385.902,257.425,386.615z"/>
				<path style="fill:none;stroke:#263238;stroke-linecap:round;stroke-linejoin:round;stroke-miterlimit:10;" d="M253.163,368.71
					c-0.474,0.713-1.76,0.607-2.873-0.236c-1.113-0.844-1.631-2.106-1.157-2.819c0.474-0.713,1.76-0.607,2.873,0.236
					C253.119,366.735,253.636,367.997,253.163,368.71z"/>
				<path style="fill:none;stroke:#263238;stroke-linecap:round;stroke-linejoin:round;stroke-miterlimit:10;" d="M268.45,357.861
					c-0.79,1.189-2.753,1.149-4.385-0.088c-1.632-1.237-2.315-3.204-1.525-4.393c0.79-1.189,2.753-1.149,4.385,0.088
					C268.557,354.706,269.24,356.673,268.45,357.861z"/>
				<path style="fill:none;stroke:#263238;stroke-linecap:round;stroke-linejoin:round;stroke-miterlimit:10;" d="M282.08,384.164
					c-0.895,1.347-3.004,1.391-4.71,0.097s-2.364-3.435-1.469-4.782c0.895-1.347,3.004-1.391,4.71-0.097
					C282.318,380.676,282.975,382.816,282.08,384.164z"/>
				<path style="fill:none;stroke:#263238;stroke-linecap:round;stroke-linejoin:round;stroke-miterlimit:10;" d="M279.193,399.453
					c-0.737,1.109-2.658,1.006-4.29-0.232c-1.632-1.237-2.357-3.14-1.62-4.249c0.737-1.109,2.658-1.006,4.29,0.232
					C279.205,396.441,279.93,398.343,279.193,399.453z"/>
			</g>
			<path style="fill:#92E3A9;stroke:#263238;stroke-linecap:round;stroke-linejoin:round;stroke-miterlimit:10;" d="
				M422.218,406.506c-14.74-12.688-34.034-22.884-59.139-26.305c-51.216-6.978-86.127,14.685-97.795,44.775
				c-3.16,8.151-6.281,18.116-8.695,28.611C286.322,458.344,365.783,464.314,422.218,406.506z"/>
			<path style="fill:#92E3A9;stroke:#263238;stroke-linecap:round;stroke-linejoin:round;stroke-miterlimit:10;" d="
				M287.497,432.465c1.966,2.962,2.033,6.377,0.148,7.629c-1.885,1.251-5.007-0.135-6.973-3.097
				c-1.966-2.962-2.033-6.377-0.148-7.629C282.408,428.117,285.53,429.503,287.497,432.465z"/>
			<path style="fill:#92E3A9;stroke:#263238;stroke-linecap:round;stroke-linejoin:round;stroke-miterlimit:10;" d="
				M320.804,396.867c1.966,2.962,2.033,6.377,0.148,7.629c-1.885,1.251-5.007-0.135-6.973-3.097
				c-1.966-2.962-2.033-6.377-0.148-7.629C315.715,392.518,318.837,393.905,320.804,396.867z"/>
			<path style="fill:#92E3A9;stroke:#263238;stroke-linecap:round;stroke-linejoin:round;stroke-miterlimit:10;" d="
				M324.364,436.171c1.966,2.962,2.033,6.377,0.148,7.629c-1.885,1.251-5.007-0.135-6.973-3.097
				c-1.966-2.962-2.033-6.377-0.148-7.629C319.276,431.823,322.398,433.209,324.364,436.171z"/>
			<path style="fill:#92E3A9;stroke:#263238;stroke-linecap:round;stroke-linejoin:round;stroke-miterlimit:10;" d="M359.812,394.76
				c1.966,2.962,2.033,6.377,0.148,7.629c-1.885,1.251-5.007-0.135-6.973-3.097c-1.966-2.962-2.033-6.377-0.148-7.629
				C354.724,390.412,357.846,391.798,359.812,394.76z"/>
			<path style="fill:#92E3A9;stroke:#263238;stroke-linecap:round;stroke-linejoin:round;stroke-miterlimit:10;" d="
				M396.921,411.781c1.966,2.962,2.033,6.377,0.148,7.629c-1.885,1.251-5.007-0.135-6.973-3.097
				c-1.966-2.962-2.033-6.377-0.148-7.629C391.832,407.432,394.954,408.819,396.921,411.781z"/>
			<path style="fill:#92E3A9;stroke:#263238;stroke-linecap:round;stroke-linejoin:round;stroke-miterlimit:10;" d="
				M363.873,429.521c1.966,2.962,2.033,6.377,0.148,7.629c-1.885,1.251-5.007-0.135-6.973-3.097
				c-1.966-2.962-2.033-6.377-0.148-7.629C358.785,425.173,361.907,426.56,363.873,429.521z"/>
		</g>
	</g>
</g>
</svg>
