<?xml version="1.0" standalone="no"?><svg xmlns:xlink="http://www.w3.org/1999/xlink" xmlns="http://www.w3.org/2000/svg" viewBox="0 0 1000 583.3412660637792" preserveAspectRatio="xMaxYMax slice"><g transform="scale(1.2692368713311122)"><rect x="0" y="0" width="787.8857142857144" height="459.6" fill="#ffffff"/><circle cx="32.825" cy="32.825" r="6.565" fill="#80e5db"/><circle cx="98.485" cy="32.825" r="6.565" fill="#effcfa"/><circle cx="164.145" cy="32.825" r="6.565" fill="#74e3d8"/><circle cx="229.795" cy="32.825" r="6.565" fill="#91e9e0"/><circle cx="295.455" cy="32.825" r="6.565" fill="#f7e758"/><circle cx="361.115" cy="32.825" r="6.565" fill="#f9ec7c"/><circle cx="426.775" cy="32.825" r="6.565" fill="#a1ece5"/><circle cx="492.425" cy="32.825" r="6.565" fill="#f5fdfc"/><circle cx="558.085" cy="32.825" r="6.565" fill="#faef90"/><circle cx="623.745" cy="32.825" r="6.565" fill="#f6e446"/><circle cx="689.3950000000001" cy="32.825" r="6.565" fill="#61dfd2"/><circle cx="755.0550000000001" cy="32.825" r="6.565" fill="#fefbe5"/><circle cx="32.825" cy="98.485" r="6.565" fill="#54dccf"/><circle cx="98.485" cy="98.485" r="6.565" fill="#cef5f1"/><circle cx="164.145" cy="98.485" r="6.565" fill="#fcf6c2"/><circle cx="229.795" cy="98.485" r="6.565" fill="#5dded1"/><circle cx="295.455" cy="98.485" r="6.565" fill="#37d6c6"/><circle cx="361.115" cy="98.485" r="6.565" fill="#abeee7"/><circle cx="426.775" cy="98.485" r="6.565" fill="#f9ee87"/><circle cx="492.425" cy="98.485" r="6.565" fill="#fcf7c5"/><circle cx="558.085" cy="98.485" r="6.565" fill="#79e4d9"/><circle cx="623.745" cy="98.485" r="6.565" fill="#f8ea6a"/><circle cx="689.3950000000001" cy="98.485" r="6.565" fill="#ebfbf9"/><circle cx="755.0550000000001" cy="98.485" r="6.565" fill="#a5ede6"/><circle cx="32.825" cy="164.145" r="6.565" fill="#f1fcfb"/><circle cx="98.485" cy="164.145" r="6.565" fill="#53dcce"/><circle cx="164.145" cy="164.145" r="6.565" fill="#e6faf8"/><circle cx="229.795" cy="164.145" r="6.565" fill="#37d6c7"/><circle cx="295.455" cy="164.145" r="6.565" fill="#76e3d8"/><circle cx="361.115" cy="164.145" r="6.565" fill="#fefce8"/><circle cx="426.775" cy="164.145" r="6.565" fill="#74e3d8"/><circle cx="492.425" cy="164.145" r="6.565" fill="#f9ee88"/><circle cx="558.085" cy="164.145" r="6.565" fill="#faf097"/><circle cx="623.745" cy="164.145" r="6.565" fill="#35d6c6"/><circle cx="689.3950000000001" cy="164.145" r="6.565" fill="#76e3d8"/><circle cx="755.0550000000001" cy="164.145" r="6.565" fill="#65e0d4"/><circle cx="32.825" cy="229.795" r="6.565" fill="#fbf3ad"/><circle cx="98.485" cy="229.795" r="6.565" fill="#56ddcf"/><circle cx="164.145" cy="229.795" r="6.565" fill="#fcf4b4"/><circle cx="229.795" cy="229.795" r="6.565" fill="#fefdf0"/><circle cx="295.455" cy="229.795" r="6.565" fill="#99eae2"/><circle cx="361.115" cy="229.795" r="6.565" fill="#a7ede6"/><circle cx="426.775" cy="229.795" r="6.565" fill="#f7e54b"/><circle cx="492.425" cy="229.795" r="6.565" fill="#6fe2d6"/><circle cx="558.085" cy="229.795" r="6.565" fill="#dff8f6"/><circle cx="623.745" cy="229.795" r="6.565" fill="#f8e969"/><circle cx="689.3950000000001" cy="229.795" r="6.565" fill="#adeee8"/><circle cx="755.0550000000001" cy="229.795" r="6.565" fill="#fbf2a1"/><circle cx="32.825" cy="295.455" r="6.565" fill="#fefce9"/><circle cx="98.485" cy="295.455" r="6.565" fill="#40d8c9"/><circle cx="164.145" cy="295.455" r="6.565" fill="#5bded1"/><circle cx="229.795" cy="295.455" r="6.565" fill="#9aeae2"/><circle cx="295.455" cy="295.455" r="6.565" fill="#3ad7c7"/><circle cx="361.115" cy="295.455" r="6.565" fill="#fefadf"/><circle cx="426.775" cy="295.455" r="6.565" fill="#47d9cb"/><circle cx="492.425" cy="295.455" r="6.565" fill="#fbf3aa"/><circle cx="558.085" cy="295.455" r="6.565" fill="#a1ece4"/><circle cx="623.745" cy="295.455" r="6.565" fill="#e1f9f7"/><circle cx="689.3950000000001" cy="295.455" r="6.565" fill="#faf19b"/><circle cx="755.0550000000001" cy="295.455" r="6.565" fill="#84e6dc"/><circle cx="32.825" cy="361.115" r="6.565" fill="#e6faf8"/><circle cx="98.485" cy="361.115" r="6.565" fill="#a6ede6"/><circle cx="164.145" cy="361.115" r="6.565" fill="#fcf7c6"/><circle cx="229.795" cy="361.115" r="6.565" fill="#fffef6"/><circle cx="295.455" cy="361.115" r="6.565" fill="#fdf9d9"/><circle cx="361.115" cy="361.115" r="6.565" fill="#40d8c9"/><circle cx="426.775" cy="361.115" r="6.565" fill="#fdfad9"/><circle cx="492.425" cy="361.115" r="6.565" fill="#fffefa"/><circle cx="558.085" cy="361.115" r="6.565" fill="#7ee5da"/><circle cx="623.745" cy="361.115" r="6.565" fill="#faf19b"/><circle cx="689.3950000000001" cy="361.115" r="6.565" fill="#6fe2d6"/><circle cx="755.0550000000001" cy="361.115" r="6.565" fill="#baf1ec"/><circle cx="32.825" cy="426.775" r="6.565" fill="#64dfd3"/><circle cx="98.485" cy="426.775" r="6.565" fill="#32d5c5"/><circle cx="164.145" cy="426.775" r="6.565" fill="#a8ede6"/><circle cx="229.795" cy="426.775" r="6.565" fill="#fbf4b3"/><circle cx="295.455" cy="426.775" r="6.565" fill="#feffff"/><circle cx="361.115" cy="426.775" r="6.565" fill="#fbf4b2"/><circle cx="426.775" cy="426.775" r="6.565" fill="#53dcce"/><circle cx="492.425" cy="426.775" r="6.565" fill="#76e3d8"/><circle cx="558.085" cy="426.775" r="6.565" fill="#f7e651"/><circle cx="623.745" cy="426.775" r="6.565" fill="#f9eb77"/><circle cx="689.3950000000001" cy="426.775" r="6.565" fill="#51dcce"/><circle cx="755.0550000000001" cy="426.775" r="6.565" fill="#f8e967"/></g></svg>