<?xml version="1.0" encoding="utf-8"?>
<!-- Generator: Adobe Illustrator 27.5.0, SVG Export Plug-In . SVG Version: 6.00 Build 0)  -->
<svg version="1.1" xmlns="http://www.w3.org/2000/svg" xmlns:xlink="http://www.w3.org/1999/xlink" x="0px" y="0px"
	 viewBox="0 0 500 500" style="enable-background:new 0 0 500 500;" xml:space="preserve">
<g id="Background_Simple">
	<g>
		<path style="fill:#92E3A9;" d="M490.499,219.076c-0.572-42.758-16.235-84.033-40.092-115.896
			c-13.957-18.64-30.751-34.969-49.085-47.684c-19.028-13.197-39.715-27.975-62.674-30.243c-5.666-0.56-11.477-0.292-17.069,1.496
			c-21.411,6.845,20.957,31.241,26.495,34.809C288.854,34.395,227.559,6.796,162.827,9.399c-12.482,0.502-25.429,2.304-36.403,9.733
			c-10.973,7.429-19.466,21.758-17.832,35.961c1.351,11.741,8.744,24.857,1.81,34.034c-1.983,2.624-4.794,4.175-7.553,5.522
			c-14.161,6.91-29.448,10.535-42.862,19.326c-20.773,13.614-34.95,38.628-41.521,64.948c-6.571,26.32-6.255,53.975-3.676,80.748
			c4.854,50.387,18.054,100.374,44.766,139.558c38.156,55.97,100.711,84.48,163.369,89.178
			c75.82,5.685,158.023-24.092,208.159-93.01c7.436-10.221,14.254-21.546,16.958-34.365c2.704-12.819,0.562-27.426-7.762-35.845
			c-2.243-2.269-5.13-4.674-4.887-8.195c0.329-4.764,5.666-6.375,9.734-7.375c26.688-6.562,41.952-41.282,44.704-72.507
			C490.363,231.084,490.579,225.066,490.499,219.076z"/>
		<path style="opacity:0.7;fill:#FFFFFF;" d="M490.499,219.076c-0.572-42.758-16.235-84.033-40.092-115.896
			c-13.957-18.64-30.751-34.969-49.085-47.684c-19.028-13.197-39.715-27.975-62.674-30.243c-5.666-0.56-11.477-0.292-17.069,1.496
			c-21.411,6.845,20.957,31.241,26.495,34.809C288.854,34.395,227.559,6.796,162.827,9.399c-12.482,0.502-25.429,2.304-36.403,9.733
			c-10.973,7.429-19.466,21.758-17.832,35.961c1.351,11.741,8.744,24.857,1.81,34.034c-1.983,2.624-4.794,4.175-7.553,5.522
			c-14.161,6.91-29.448,10.535-42.862,19.326c-20.773,13.614-34.95,38.628-41.521,64.948c-6.571,26.32-6.255,53.975-3.676,80.748
			c4.854,50.387,18.054,100.374,44.766,139.558c38.156,55.97,100.711,84.48,163.369,89.178
			c75.82,5.685,158.023-24.092,208.159-93.01c7.436-10.221,14.254-21.546,16.958-34.365c2.704-12.819,0.562-27.426-7.762-35.845
			c-2.243-2.269-5.13-4.674-4.887-8.195c0.329-4.764,5.666-6.375,9.734-7.375c26.688-6.562,41.952-41.282,44.704-72.507
			C490.363,231.084,490.579,225.066,490.499,219.076z"/>
	</g>
</g>
<g id="Clouds_1_">
	<path style="fill:none;stroke:#263238;stroke-linecap:round;stroke-linejoin:round;stroke-miterlimit:10;" d="M176.761,215.947
		c0,0-22.273-35.399-38.655-33.699c-16.382,1.7-20.814,18.832-23.787,23.788c-2.974,4.956-15.858-7.929-24.779-4.956
		c-8.92,2.974-6.938,11.894-12.885,14.867c-5.947,2.973-12.885-3.965-20.814-1.982c-7.929,1.982-11.894,10.903-11.894,10.903
		s-9.911-3.965-15.858-1.982c-5.947,1.982-12.885,4.956-12.885,4.956h197.238c0,0-1.982-3.965-13.876-9.911
		C186.673,211.983,176.761,215.947,176.761,215.947z"/>
	<path style="fill:none;stroke:#263238;stroke-linecap:round;stroke-linejoin:round;stroke-miterlimit:10;" d="M468.232,283.404
		c0,0-9.589-15.24-16.641-14.508c-7.052,0.732-8.961,8.107-10.241,10.241c-1.28,2.133-6.827-3.414-10.668-2.133
		c-3.84,1.28-2.987,5.12-5.547,6.4s-5.547-1.707-8.961-0.853c-3.414,0.853-5.12,4.694-5.12,4.694s-4.267-1.707-6.827-0.853
		c-2.56,0.853-5.547,2.133-5.547,2.133h84.913c0,0-0.853-1.707-5.974-4.267C472.499,281.697,468.232,283.404,468.232,283.404z"/>
	<path style="fill:none;stroke:#263238;stroke-linecap:round;stroke-linejoin:round;stroke-miterlimit:10;" d="M176.053,40.466
		c0,0-15.773-25.069-27.375-23.865c-11.601,1.204-14.74,13.336-16.846,16.846c-2.106,3.51-11.231-5.615-17.548-3.51
		c-6.317,2.106-4.913,8.423-9.125,10.529c-4.211,2.106-9.125-2.808-14.74-1.404c-5.615,1.404-8.423,7.721-8.423,7.721
		s-7.019-2.808-11.231-1.404c-4.211,1.404-9.125,3.51-9.125,3.51h139.681c0,0-1.404-2.808-9.827-7.019
		C183.072,37.659,176.053,40.466,176.053,40.466z"/>
</g>
<g id="Rocks">
	<g>
		<g>
			<path style="fill:#B5B5B5;stroke:#263238;stroke-linecap:round;stroke-linejoin:round;stroke-miterlimit:10;" d="M418.065,340.97
				c-0.551-3.306-5.511-4.96-14.328-4.96c-8.817,0-147.138,39.127-158.711,45.74c-11.008,6.29-109.264,77.892-118.829,84.866
				h253.721c2.502-6.427,15.22-39.067,17.206-43.535c2.204-4.96,12.675-18.186,15.43-22.043c2.755-3.858,1.653-7.164,0.551-13.777
				c-1.102-6.613-2.204-13.777-2.204-13.777s5.511-15.981,6.613-18.737C418.616,351.991,418.616,344.276,418.065,340.97z"/>
			<g>
				<path style="fill:#263238;stroke:#263238;stroke-linecap:round;stroke-linejoin:round;stroke-miterlimit:10;" d="
					M411.22,375.539c-0.199-1.272-0.319-2.055-0.319-2.055s5.511-15.981,6.613-18.737c-5.511-1.102-22.043,0-27.554,4.409
					c-5.511,4.409,0,5.511,3.858,4.96c3.858-0.551,9.92-2.204,9.92-2.204s3.306,2.755-4.96,6.613
					c-8.266,3.858,4.409-9.919-36.922,8.817c-41.331,18.737-68.885,27.554-64.476,30.309c4.409,2.755,38.576-8.266,35.269-3.307
					c-3.306,4.96-7.164,7.164-24.799,10.471c-17.635,3.306-35.82,5.511-42.984,6.613c-7.164,1.102,0-9.919,6.613-15.43
					c6.613-5.511,1.653-11.022-12.675-4.409c-14.328,6.613-51.802,33.616-51.25,36.922c0.551,3.306,29.758-7.164,25.901-2.204
					c-3.858,4.96-56.761,22.594-62.272,26.452c-1.916,1.341-4.229,2.678-6.435,3.858h203.953
					c3.376-6.975,12.254-25.311,15.644-32.257c0.585-1.199,1.007-2.059,1.208-2.461c1.653-3.306,1.102,13.777,3.306,7.715
					c2.204-6.062,7.715-29.758,11.022-38.576c3.306-8.817-1.653-4.96-3.307-3.858c-1.653,1.102-2.755,1.102,1.653-8.817
					C400.695,382.807,405.93,380.016,411.22,375.539z"/>
				<path style="fill:#B5B5B5;stroke:#263238;stroke-linecap:round;stroke-linejoin:round;stroke-miterlimit:10;" d="
					M418.065,344.828c0,0,0.143,0.318,0.35,0.833c-0.006-0.303-0.014-0.602-0.024-0.896
					C418.187,344.798,418.065,344.828,418.065,344.828z"/>
			</g>
			<path style="fill:#263238;stroke:#263238;stroke-linecap:round;stroke-linejoin:round;stroke-miterlimit:10;" d="
				M383.347,353.094c0,0-40.229,11.573-45.189,18.186c-4.96,6.613,14.879-1.102,27.554-6.613
				C378.387,359.156,389.96,353.094,383.347,353.094z"/>
			<path style="fill:#263238;stroke:#263238;stroke-linecap:round;stroke-linejoin:round;stroke-miterlimit:10;" d="
				M325.483,382.301c0,0-26.452,4.96-16.532,9.368l30.309-12.675L325.483,382.301z"/>
			<path style="fill:#263238;stroke:#263238;stroke-linecap:round;stroke-linejoin:round;stroke-miterlimit:10;" d="
				M200.388,431.347l-24.799,20.39c0,0,0.551,3.858,9.919-3.306c9.368-7.164,30.309-21.492,25.35-22.043
				C205.899,425.836,200.388,431.347,200.388,431.347z"/>
		</g>
		<g>
			<path style="fill:#B5B5B5;stroke:#263238;stroke-linecap:round;stroke-linejoin:round;stroke-miterlimit:10;" d="
				M362.799,466.616c1.414-1.172,2.797-2.418,3.464-3.307c1.653-2.204,14.879-19.839,18.186-24.247
				c3.306-4.409,17.083-9.368,15.981-12.124c-1.102-2.755-17.635-2.204-39.678,8.266c-18.451,8.764-51.181,26.019-61.361,31.411
				H362.799z"/>
			<path style="fill:#263238;stroke:#263238;stroke-linecap:round;stroke-linejoin:round;stroke-miterlimit:10;" d="
				M421.618,466.616c-0.988-3.075-2.662-7.946-4.104-10.471c-2.204-3.858-12.124-6.062-12.124-6.062s1.102-14.879,0.551-19.839
				c-0.551-4.96-5.511-3.307-5.511-3.307s-19.288,9.368-22.043,13.226c-1.381,1.934-6.363,9.406-10.988,16.379
				c-4.483,3.073-14.361,9.698-14.361,8.419c0-1.653,2.755-6.613,6.613-14.328c3.251-6.503-11.112,10.481-15.708,15.981H421.618z"/>
		</g>
	</g>
</g>
<g id="Tree">
	<g>
		<g>
			<path style="fill:#263238;stroke:#263238;stroke-linecap:round;stroke-linejoin:round;stroke-miterlimit:10;" d="
				M229.337,369.465c0,0-10.543,16.199-13.214,19.636c-2.671,3.437-27.341,2.41-33.354,4.811c-6.013,2.4-12.587,16.318-13.96,20.91
				c-1.374,4.592-2.657,17.792-5.038,19.16c-2.381,1.369-11.783,1.916-14.887,4.967c-3.104,3.052-4.72,10.529-5.732,14.279
				c-1.012,3.75-2.89,6.731-2.89,6.731s9.678-16.969,12.106-17.521c2.429-0.551,9.283-2.591,12.458-4.416
				c3.175-1.825,7.263-2.063,8.347-4.587c1.084-2.524,1.573-15.268,4.534-20.772c2.961-5.504,4.064-0.646,4.373,4.668
				c0.309,5.314,0.209,10.652,0.209,10.652s3.926-10.072,5.851-12.235c1.925-2.163,7.909,2.001,7.909,2.001s-8.1-5.271-9.25-10.947
				c-1.15-5.675,3.251-7.572,6.978-6.968c3.727,0.604,20.391-2.006,23.662-2.196c3.27-0.19,21.123-16.282,21.123-16.282l5.4-21.354
				L229.337,369.465z"/>
			<path style="fill:#FFFFFF;stroke:#263238;stroke-linecap:round;stroke-linejoin:round;stroke-miterlimit:10;" d="M169.11,307.327
				c0,0,11.051,14.366,16.023,17.128c4.973,2.763,39.763,8.162,44.206,9.172c10.092,2.294,16.055,1.376,16.055,1.376
				s-6.666,6.028-8.324,11.553s-3.315,9.945-4.973,10.498c-1.658,0.553-8.84-12.708-18.233-16.023
				c-9.393-3.315-30.942-12.708-34.257-14.366c-3.315-1.658-20.996-22.654-20.996-22.654L169.11,307.327z"/>
			<path style="fill:#263238;stroke:#263238;stroke-linecap:round;stroke-linejoin:round;stroke-miterlimit:10;" d="
				M183.374,213.916c0,0-7.838,17.485-3.618,17.485s20.499-15.073,20.499-15.073s0,10.25,2.412,4.823
				c2.412-5.426,3.618-11.455,3.618-11.455s3.015,12.058,5.426,6.632c2.412-5.426,4.823-28.94,4.823-28.94l29.543-15.676
				c0,0,14.47,28.94,19.896,23.514c5.426-5.426,4.22-16.279,4.22-16.279s14.47,8.441,14.47,3.618s-4.22-9.647-4.22-9.647
				s2.412,5.426,5.426,0c3.014-5.426,6.029-16.882,6.029-16.882s3.617,12.058,5.426,7.235c1.809-4.823,4.996-20.903,4.996-20.903
				s49.267-15.272,53.487-17.684c4.22-2.412,18.69,12.661,23.514,14.47c4.823,1.809,6.029-3.617,6.029-3.617
				s7.838,15.073,10.25,11.455c2.412-3.618-1.809-10.249-1.809-10.249s32.557,30.146,33.16,21.102
				c0.603-9.044-3.618-18.69-3.618-18.69s5.426,17.484,7.838,13.264c2.412-4.22,6.029-21.705,6.029-23.514
				c0-1.809-9.647-26.528-9.647-26.528s-82.599-10.852-147.714,24.719C214.726,162.668,187.278,203.138,183.374,213.916z"/>
			<path style="fill:#263238;stroke:#263238;stroke-linecap:round;stroke-linejoin:round;stroke-miterlimit:10;" d="
				M365.501,303.489c-0.509-2.73-1.412-5.366-2.697-7.806c3.394,0.582,7.197,1.198,8.072,1.198c1.658,0-3.315-3.868-3.315-3.868
				l-11.443-5.492c-0.513-0.426-1.039-0.833-1.578-1.221c1.968-0.244,6.943-1.124,6.943-3.784c0-2.841-10.141-0.408-13.041,0.346
				c-0.12-0.052-0.244-0.096-0.365-0.146c1.395-1.229,5.892-5.421,4.013-6.83c-1.654-1.24-8.874,2.468-12.406,4.415
				c-0.059-0.01-0.12-0.018-0.179-0.028c2.665-1.759,7.095-4.939,4.297-4.939c-0.901,0-2.523,0.24-4.481,0.609
				c-6.441,1.212-16.515,3.812-16.515,3.812l0.849,0.37c-6.352,0.866-12.479,2.755-17.64,5.362
				c-3.791,1.915-7.075,4.243-9.854,6.999c-1.88-0.507-5.71-1.236-7.051,0.775c-1.331,1.996,1.75,3.009,3.462,3.404
				c-0.124,0.171-0.24,0.348-0.361,0.521c-2.557,0.612-7.724,2.051-8.063,3.744c-0.287,1.434,2.521,2.137,4.608,2.46
				c-0.355,0.815-0.693,1.644-0.999,2.503c-0.19,0.535-0.371,1.077-0.543,1.629c-1.833,5.903-2.542,12.865-0.651,18.699
				c-0.698,2.214-1.256,4.927-1.062,7.643c0.35,4.9,3.414,0.841,4.771-1.226c0.223,0.239,0.456,0.472,0.697,0.699
				c0.103,2.045,0.404,5.511,1.299,8.196c1.353,4.06,2.709-5.413,2.709-5.413c7.219,3.605,19.398-15.791,23.458-18.047
				c4.06-2.256,12.632,4.06,18.046,5.865s8.572-2.256,9.474-5.865l0.215-0.574c1.271-2.309,5.684,2.915,12.868,4.183
				c3.558,0.628,5.478-1.13,6.443-3.827c1.214,1.28,2.367,2.069,3.031,1.571c1.285-0.964-0.858-6.036-2.201-8.882
				c-0.011-0.315-0.025-0.628-0.044-0.938c1.602,1.703,4.848,4.845,5.854,3.504C373.474,311.304,365.501,303.489,365.501,303.489z"
				/>
			<path style="fill:#FFFFFF;stroke:#263238;stroke-linecap:round;stroke-linejoin:round;stroke-miterlimit:10;" d="M278.09,157.927
				c0,0,19.839,4.96,27.003,10.471c7.164,5.511,8.266,23.145,14.879,28.105c6.613,4.96,12.675,14.328,10.471,22.594
				c-2.204,8.266-42.587,41.873-60.772,62.814c-18.186,20.941-41.729,78.263-42.831,87.631c-1.102,9.368-19.288,8.266-26.452,16.532
				c-7.164,8.266-12.124,34.167-14.879,38.576c-2.493,3.989-4.084,6.625-9.264,11.582c-0.544,0.521-1.128,1.068-1.757,1.644
				c-6.613,6.062-9.741,28.105-9.741,28.105s10.292-20.941,16.354-27.554c6.062-6.613,12.124-9.368,12.675-14.879
				c0.551-5.511,6.062-20.39,9.368-27.003c3.307-6.613,15.981-11.573,17.635-12.124c1.653-0.551,13.777-3.858,7.715,6.062
				c-6.062,9.919-2.204,19.288,1.102,20.39c3.307,1.102,23.145-4.96,25.35-4.409c2.204,0.551,2.204,8.266,1.653,14.879
				c-0.551,6.613,22.594,13.226,22.594,13.226l1.653,7.164c0,0,6.062-12.675,3.858-13.777c-2.204-1.102-20.941-2.204-19.839-7.164
				c1.102-4.96,3.858-16.532,1.102-20.39c-2.755-3.858-20.39,2.755-23.696,0c-3.306-2.755,6.613-20.941,8.817-23.145
				c2.204-2.204,10.471-13.777,25.901-14.328c15.43-0.551,29.207,2.755,35.269,3.306s42.433-17.083,47.393-19.288
				c4.96-2.204,15.43-5.511,15.43-5.511s-7.715-2.755-13.777-3.858c-6.062-1.102-13.777,2.204-23.145,5.511
				c-9.368,3.306-19.288,3.306-22.594-11.573c-3.306-14.879-3.306-29.758,0.551-44.086c3.857-14.328,22.043-47.393,28.656-55.659
				s31.963-15.43,41.882-17.083c9.919-1.653,23.145-4.96,24.799-11.022c1.653-6.062,4.409-12.124,4.409-12.124
				s-6.062,11.573-12.124,13.777c-6.062,2.204-19.839,5.511-19.839,5.511l4.96-17.635c0,0-8.817,14.879-12.124,17.635
				c0,0-19.839,4.96-22.043,4.96c-2.204,0-11.022-4.409-15.43-8.817c-4.409-4.409-13.226-17.083-14.879-18.186
				c-1.653-1.102-1.102-13.226,6.062-19.839c7.164-6.613,33.616-23.145,37.473-27.554c3.858-4.409,21.492-23.145,21.492-23.145
				s-15.43,10.471-19.288,14.879c-3.858,4.409-5.511,9.368-7.715,7.715c-2.204-1.653-3.858-18.186-3.858-18.186
				s-2.755,15.43-3.858,19.288c-1.102,3.858-4.96,5.511-7.715,7.164c-2.755,1.653-22.043,15.43-24.247,17.634
				c-2.204,2.204-6.613,5.511-8.817,1.653c-2.204-3.858-4.409-8.817-7.164-17.083s-5.511-17.083-5.511-17.083
				s5.511,25.35,2.755,25.35s-19.839-3.307-19.839-3.307l-17.083-1.102L278.09,157.927z"/>
			<g>
				<path style="fill:#263238;stroke:#263238;stroke-linecap:round;stroke-linejoin:round;stroke-miterlimit:10;" d="
					M305.093,168.398c5.435,4.18,7.382,15.334,10.892,22.642l8.386,3.019c0,0,8.288,12.156,11.051,15.471
					c2.763,3.315,8.288,5.525,8.288,5.525s2.854-0.319,5.199-1.434c-3.305-1.695-7.172-4.171-9.648-6.647
					c-4.409-4.409-13.226-17.083-14.879-18.186c-1.653-1.102-1.102-13.226,6.062-19.839c7.164-6.613,33.616-23.145,37.473-27.554
					c3.858-4.409,21.492-23.145,21.492-23.145s-15.43,10.471-19.288,14.879c-3.858,4.409-5.511,9.368-7.715,7.715
					c-2.204-1.653-3.858-18.186-3.858-18.186s-2.755,15.43-3.858,19.288c-1.102,3.858-4.96,5.511-7.715,7.164
					c-2.755,1.653-22.043,15.43-24.247,17.635c-2.204,2.204-6.613,5.511-8.817,1.653c-2.204-3.858-4.409-8.817-7.164-17.083
					s-5.511-17.083-5.511-17.083s5.511,25.35,2.755,25.35s-19.839-3.307-19.839-3.307l-17.083-1.102l11.022,2.755
					C278.09,157.927,297.929,162.887,305.093,168.398z"/>
				<path style="fill:#263238;stroke:#263238;stroke-linecap:round;stroke-linejoin:round;stroke-miterlimit:10;" d="
					M403.737,205.32c-6.062,2.204-19.839,5.511-19.839,5.511l4.96-17.635c0,0-8.817,14.879-12.124,17.635
					c1.785,2.566-10.923,5.329-15.343,7.539c-4.42,2.21-17.681,5.525-21.549,9.945c-3.868,4.42-14.918,16.023-16.576,22.101
					c-1.658,6.078-8.84,17.681-8.84,17.681s-10.842,8.727-18.074,16.301c-3.221,3.374-5.727,6.52-6.237,8.563
					c-0.926,3.705,1.77,2.751,4.33,1.189l-7.84,18.406c0,0,3.778-3.781,7.328-8.06c-3.334,9.973-7.366,22.369-7.686,24.932
					c-0.552,4.42,9.393-9.945,9.393-9.945s-3.315,16.576-2.21,23.206s11.603,14.918,18.234,16.023
					c6.63,1.105,16.023-6.63,26.521-9.393c10.498-2.763,21.466-2.372,21.466-2.372c4.96-2.204,15.43-5.511,15.43-5.511
					s-7.715-2.755-13.777-3.858c-6.062-1.102-13.777,2.204-23.145,5.511c-9.368,3.306-19.288,3.306-22.594-11.573
					c-3.306-14.879-3.306-29.758,0.551-44.086c3.857-14.328,22.043-47.393,28.656-55.659s31.963-15.43,41.882-17.083
					c9.919-1.653,23.145-4.96,24.799-11.022c1.653-6.062,4.409-12.124,4.409-12.124S409.798,203.115,403.737,205.32z"/>
				<path style="fill:#263238;stroke:#263238;stroke-linecap:round;stroke-linejoin:round;stroke-miterlimit:10;" d="
					M283.004,314.144c1.673-7.249-5.576,17.285-5.576,23.419c0,0.746,0.132,1.459,0.364,2.137c1.675,4.889,8.557,7.9,8.557,7.9
					l7.249,2.788c0,0-7.806-8.364-10.594-11.152C280.216,336.448,281.331,321.393,283.004,314.144z"/>
				<path style="fill:#263238;stroke:#263238;stroke-linecap:round;stroke-linejoin:round;stroke-miterlimit:10;" d="
					M282.637,295.014c0,0-4.094,9.651-4.652,14.669c-0.558,5.018-2.23,12.825-2.23,12.825s11.152-28.995,15.055-37.359
					C290.81,285.15,283.752,291.111,282.637,295.014z"/>
			</g>
			<g>
				<path style="fill:#263238;stroke:#263238;stroke-linecap:round;stroke-linejoin:round;stroke-miterlimit:10;" d="
					M264.864,420.792c1.102-4.96,3.858-16.532,1.102-20.39C264.145,405.125,264.864,420.792,264.864,420.792z"/>
				<path style="fill:#263238;stroke:#263238;stroke-linecap:round;stroke-linejoin:round;stroke-miterlimit:10;" d="
					M257.515,360.922c-6.63,3.868-14.918,22.101-16.023,24.864s4.973-17.681,0.553-11.603c-4.42,6.078-5.525,18.233-6.078,24.311
					c-0.553,6.078-1.658,6.078,3.868,5.525c3.598-0.36,14.362-3.786,20.932-4.829c-6.335,0.331-16.118,3.193-18.495,1.212
					c-3.306-2.755,6.613-20.941,8.817-23.145c2.204-2.204,10.471-13.777,25.901-14.328
					C276.988,362.929,264.145,357.055,257.515,360.922z"/>
			</g>
			<path style="fill:#263238;stroke:#263238;stroke-linecap:round;stroke-linejoin:round;stroke-miterlimit:10;" d="
				M185.134,324.455c-4.973-2.763-16.023-17.128-16.023-17.128l-10.498-3.315c0,0,17.681,20.996,20.996,22.654
				c0.848,0.424,2.892,1.355,5.616,2.56c1.34-1.107,2.745-2.248,4.125-3.328C187.382,325.371,185.901,324.882,185.134,324.455z"/>
			<path style="fill:#263238;stroke:#263238;stroke-linecap:round;stroke-linejoin:round;stroke-miterlimit:10;" d="
				M230.594,387.932c0,0,1.973-5.26,0.329-7.233c-1.644-1.973-7.233-1.973-16.439,3.617c-9.206,5.589-13.48,6.904-15.452,16.11
				c-1.973,9.206-6.247,22.685-7.891,25.316c-1.229,1.966-6.314,7.606-9.629,12.251c5.922-6.295,11.724-9.059,12.263-14.445
				c0.551-5.511,6.062-20.39,9.368-27.003c3.307-6.613,15.981-11.573,17.635-12.124c1.579-0.526,12.7-3.558,8.411,4.816
				L230.594,387.932z"/>
		</g>
		<g>
			<path style="fill:#92E3A9;stroke:#263238;stroke-linecap:round;stroke-linejoin:round;stroke-miterlimit:10;" d="M258.278,61.519
				c-13.41,7.737-25.769,16.866-36.34,26.965c-5.492,5.247-10.437,11.069-14.525,17.478c-4.135,6.484-6.235,14.25-11.118,20.176
				c-8.023,9.736-19.471,16.852-29.161,24.78c-13.752,11.252-26.255,24.379-26.88,56.885c-0.625,32.506,15.003,30.005,38.132,8.751
				c23.129-21.254,42.507-38.132,43.133-28.13c0.625,10.002,18.128,24.379,31.88,3.126s29.38-40.632,45.633-51.259
				c16.253-10.627,8.126,6.251,17.503,8.752c9.377,2.5,18.128,0,35.631-13.127c17.503-13.127,33.131-17.503,45.633-11.252
				c12.502,6.251,26.88-4.376,33.131,3.125s13.127,42.507,20.629,29.38c7.501-13.127,6.876-58.135-25.63-94.391
				c-19.367-21.602-51.646-28.324-79.464-27.615C316.826,35.92,285.401,45.871,258.278,61.519z"/>
			<path style="fill:#92E3A9;stroke:#263238;stroke-linecap:round;stroke-linejoin:round;stroke-miterlimit:10;" d="
				M192.988,129.939c0,0-20.842,7.295-27.095,12.505c-6.253,5.21-6.774,9.9-4.168,8.858c2.605-1.042,8.337-4.689,8.337-4.689
				s-16.152,7.295-18.237,13.547c-2.084,6.253,7.816-0.521,7.816-0.521s-3.126,4.168,0.521,4.168c3.647,0,14.068-8.337,14.068-8.337
				s-4.168,9.9,0,7.816c4.168-2.084,13.026-16.674,13.026-16.674"/>
			<path style="fill:#92E3A9;stroke:#263238;stroke-linecap:round;stroke-linejoin:round;stroke-miterlimit:10;" d="M412.871,65.85
				c0,0,3.647,7.295,3.126,11.984c-0.521,4.689-7.295-6.253-7.295-6.253s2.605,5.731,3.126,9.9c0.521,4.168-5.732,0-5.732,0
				s2.605,3.647,4.168,7.816c1.563,4.168-8.337-2.605-8.337-2.605s5.21,12.505,4.689,18.758c-0.521,6.253-8.858-12.505-8.858-12.505
				s0,9.379-4.689,7.816c-4.69-1.563-5.732-10.942-5.732-10.942s-6.253,5.211-7.816,1.042c-1.563-4.168-1.042-11.984-1.042-11.984
				s-5.211,8.337-6.253,5.21c-1.042-3.126-1.563-7.816-1.563-7.816"/>
			<path style="fill:#92E3A9;stroke:#263238;stroke-linecap:round;stroke-linejoin:round;stroke-miterlimit:10;" d="M221.938,88.485
				c0,0-17.298,4.3-17.298,6.8c0,2.501,10.002,1.25,10.002,1.25s-3.751,6.876,0.625,5.626c4.376-1.25,10.627-7.501,10.627-7.501
				s-3.126,11.877,0.625,8.752c3.751-3.126,9.377-11.877,9.377-11.877s3.751,8.752,5.626,3.751
				c1.875-5.001,1.875-12.502,1.875-12.502"/>
			<path style="fill:#92E3A9;stroke:#263238;stroke-linecap:round;stroke-linejoin:round;stroke-miterlimit:10;" d="
				M316.534,142.168c0,0-8.751,10.002-4.376,11.252c4.376,1.25,9.377-6.876,9.377-6.876s1.25,13.752,4.376,11.252
				c3.125-2.5,3.751-13.752,3.751-13.752s5.001,13.127,6.251,6.251c1.25-6.876,0.625-12.502,0.625-12.502"/>
			<path style="fill:#92E3A9;stroke:#263238;stroke-linecap:round;stroke-linejoin:round;stroke-miterlimit:10;" d="M145.88,206.554
				c0,0-13.127,10.627-10.627,13.752c2.5,3.126,11.252-5.626,11.252-5.626s-12.502,15.003-11.252,18.128
				c1.25,3.126,7.501-4.376,7.501-4.376s-6.251,11.877-3.751,14.377c2.5,2.5,6.876-3.751,6.876-3.751s0,14.378,4.376,10.002
				c4.376-4.376,6.251-15.628,6.251-15.628s6.251,16.253,7.501,7.501c1.25-8.751,0.625-15.628,0.625-15.628"/>
			<path style="fill:#92E3A9;stroke:#263238;stroke-linecap:round;stroke-linejoin:round;stroke-miterlimit:10;" d="
				M226.642,177.375c0,0-13.127,10.627-10.627,13.752s11.252-5.626,11.252-5.626s-12.502,15.003-11.252,18.128
				c1.25,3.126,7.501-4.376,7.501-4.376s-6.251,11.877-3.751,14.378c2.5,2.5,6.876-3.751,6.876-3.751s0,14.378,4.376,10.002
				c4.376-4.376,6.251-15.628,6.251-15.628s6.251,16.253,7.501,7.501c1.25-8.751,0.625-15.628,0.625-15.628"/>
			<path style="fill:#92E3A9;stroke:#263238;stroke-linecap:round;stroke-linejoin:round;stroke-miterlimit:10;" d="
				M451.558,111.537c0,0,15.628,13.752,12.502,16.253c-3.126,2.5-11.877-4.376-11.877-4.376s13.752,20.004,10.627,20.629
				c-3.125,0.625-9.377-8.126-9.377-8.126"/>
			<path style="fill:#92E3A9;stroke:#263238;stroke-linecap:round;stroke-linejoin:round;stroke-miterlimit:10;" d="
				M397.799,124.665c0,0,6.251,18.128,7.501,11.877c1.25-6.251,0.625-11.252,0.625-11.252s5.001,9.377,6.876,5.626
				c1.875-3.751-1.25-11.252-1.25-11.252"/>
			<path style="fill:#92E3A9;stroke:#263238;stroke-linecap:round;stroke-linejoin:round;stroke-miterlimit:10;" d="M387.172,41.525
				c0,0,14.378-6.876,15.628-4.376l-3.126,5.626c0,0,7.501-3.751,11.252-2.5c3.751,1.25-1.875,6.251-1.875,6.251
				s14.378,2.5,15.003,4.376c0.625,1.875-9.377,1.875-9.377,1.875"/>
			<path style="fill:#92E3A9;stroke:#263238;stroke-linecap:round;stroke-linejoin:round;stroke-miterlimit:10;" d="
				M234.645,131.541c0,0-8.126,11.252-5.001,12.502c3.126,1.25,11.877-8.126,11.877-8.126s-3.126,9.377,0.625,7.501
				c3.751-1.875,6.251-8.751,6.251-8.751s4.376,4.376,5.626,2.5c1.25-1.875-0.625-5.626-0.625-5.626s6.876,3.126,8.752-1.25
				c1.875-4.376-1.875-6.251-1.875-6.251s3.751-1.875,5.626-3.751c1.875-1.875,0-5.001,0-5.001"/>
		</g>
		<g>
			<path style="fill:#92E3A9;stroke:#263238;stroke-linecap:round;stroke-linejoin:round;stroke-miterlimit:10;" d="
				M447.738,187.016c-2.825-11.611-9.41-20.542-19.609-27.097c-18.449-11.856-49.068-16.55-66.192,0.263
				c-3.967,3.895-6.78,8.787-8.354,14.108c-1.843,6.23-5.938,23.737,5.559,22.917c9.489-0.677,15.71-7.233,16.351-2.734
				c0.641,4.499,3.966,9.831,10.771,8.321c6.805-1.51,18.017-8.102,22.665-4.849c4.648,3.253,16.998,28.355,26.224,24.886
				c13.745-5.168,15.569-21.137,13.039-33.768C448.053,188.372,447.901,187.69,447.738,187.016z"/>
			<path style="fill:#92E3A9;stroke:#263238;stroke-linecap:round;stroke-linejoin:round;stroke-miterlimit:10;" d="
				M353.582,174.291c0,0-10.673,8.489-9.256,10.852c1.417,2.363,8.791-4.628,8.791-4.628s-7.225,10.885-5.203,12.757
				c2.022,1.872,9.624-7.311,10.4-9.447"/>
			<path style="fill:#92E3A9;stroke:#263238;stroke-linecap:round;stroke-linejoin:round;stroke-miterlimit:10;" d="
				M437.878,169.925c0,0,7.958-1.944,9.809,1.573c1.851,3.516-5.937,3.816-5.937,3.816s10.735,3.331,10.999,6.128
				c0.264,2.798-8.564,2.435-8.564,2.435"/>
			<path style="fill:#92E3A9;stroke:#263238;stroke-linecap:round;stroke-linejoin:round;stroke-miterlimit:10;" d="
				M435.152,222.831c0,0,0.452,11.681,2.608,6.918c2.157-4.762,2.897-11.888,2.897-11.888s4.948,11.041,6.293,3.424
				c1.345-7.617-2.243-15.746-2.243-15.746"/>
			<path style="fill:#92E3A9;stroke:#263238;stroke-linecap:round;stroke-linejoin:round;stroke-miterlimit:10;" d="
				M384.253,168.789c0,0-11.852,2.094-10.549,5.553c1.303,3.46,9.318,0.968,9.318,0.968s-17.732,5.361-16.372,8.273
				c1.36,2.911,5.916,1.722,5.916,1.722s-3.858,5.14-1.06,4.876c2.798-0.264,2.798-0.264,2.798-0.264l1.189,4.556"/>
		</g>
		<g>
			<path style="fill:#92E3A9;stroke:#263238;stroke-linecap:round;stroke-linejoin:round;stroke-miterlimit:10;" d="
				M383.008,233.951c-16.837-10.558-38.718-11.566-55.143,0.392c-11.853,8.63-32.411,42.047-11.664,51.926
				c11.573,5.511,32.514-4.96,38.576-6.062c6.062-1.102,2.755,3.858,13.226,12.124c10.47,8.266,19.839-1.653,22.043,2.755
				c2.204,4.409-4.96,23.696,13.225,19.288c16.095-3.902,14.638-22.043,12.051-34.844
				C411.648,261.348,399.061,244.02,383.008,233.951z"/>
			<path style="fill:#92E3A9;stroke:#263238;stroke-linecap:round;stroke-linejoin:round;stroke-miterlimit:10;" d="
				M383.008,233.951c0,0,16.406,1.068,21.366,4.926c4.96,3.858-7.164,1.653-7.164,1.653s29.758,14.879,24.247,16.532
				c-5.511,1.653-12.675-3.858-12.675-3.858s11.573,15.43,11.022,19.288c-0.551,3.858-10.471-7.164-10.471-7.164"/>
			<path style="fill:#92E3A9;stroke:#263238;stroke-linecap:round;stroke-linejoin:round;stroke-miterlimit:10;" d="
				M392.801,308.864c0,0-1.653,10.471,0,11.022c1.653,0.551,10.47-5.511,10.47-5.511s-2.204,5.511-0.551,5.511
				c1.653,0,4.96-10.471,4.96-10.471s4.409,14.328,6.062,4.96c1.653-9.368-2.755-17.083-2.755-17.083"/>
			<path style="fill:#92E3A9;stroke:#263238;stroke-linecap:round;stroke-linejoin:round;stroke-miterlimit:10;" d="M315.098,255.41
				c0,0-19.288,6.062-14.879,9.368c4.409,3.307,10.471-0.551,10.471-0.551s-12.124,9.919-9.919,11.573
				c2.204,1.653,9.368-3.858,9.368-3.858s-6.613,13.777-2.204,12.675c4.409-1.102,7.715-7.715,7.715-7.715"/>
			<path style="fill:#92E3A9;stroke:#263238;stroke-linecap:round;stroke-linejoin:round;stroke-miterlimit:10;" d="
				M352.572,246.041c0,0-19.288,6.062-14.328,8.817c4.96,2.755,8.266,0,8.266,0s-6.062,10.471-1.653,8.817
				c4.409-1.653,6.062-4.409,6.062-4.409s4.409,14.879,6.613,12.124c2.204-2.755,3.307-8.266,3.307-8.266
				s11.022,13.226,11.573,6.613c0.551-6.613,0-9.368,0-9.368s6.062,6.613,6.062,2.755c0-3.858-2.204-8.266-2.204-8.266"/>
		</g>
		<g>
			<g>
				<path style="fill:#92E3A9;stroke:#263238;stroke-linecap:round;stroke-linejoin:round;stroke-miterlimit:10;" d="
					M121.352,298.655c3.282-9.215,9.399-15.931,18.258-20.406c16.025-8.094,41.354-9.327,53.876,5.81
					c2.901,3.507,4.778,7.729,5.61,12.195c0.974,5.228,2.828,19.831-6.464,18.191c-7.669-1.353-12.181-7.218-13.083-3.609
					c-0.902,3.609-4.06,7.669-9.474,5.865c-5.414-1.805-13.985-8.121-18.046-5.865c-4.06,2.255-16.239,21.651-23.458,18.047
					c-10.755-5.371-10.89-18.528-7.762-28.599C120.981,299.733,121.162,299.19,121.352,298.655z"/>
				<path style="fill:#92E3A9;stroke:#263238;stroke-linecap:round;stroke-linejoin:round;stroke-miterlimit:10;" d="
					M199.097,296.254c0,0,7.973,7.815,6.619,9.619c-1.354,1.805-6.767-4.511-6.767-4.511s4.963,9.474,3.158,10.827
					c-1.805,1.354-7.218-6.767-7.669-8.572"/>
				<path style="fill:#92E3A9;stroke:#263238;stroke-linecap:round;stroke-linejoin:round;stroke-miterlimit:10;" d="
					M130.826,285.572c0,0-6.316-2.256-8.12,0.451c-1.805,2.707,4.511,3.609,4.511,3.609s-9.023,1.805-9.474,4.06
					c-0.451,2.256,6.767,2.707,6.767,2.707"/>
				<path style="fill:#92E3A9;stroke:#263238;stroke-linecap:round;stroke-linejoin:round;stroke-miterlimit:10;" d="
					M128.572,328.883c0,0-1.355,9.473-2.709,5.413c-1.354-4.06-1.354-9.925-1.354-9.925s-4.963,8.572-5.414,2.256
					c-0.451-6.316,3.158-12.632,3.158-12.632"/>
				<path style="fill:#92E3A9;stroke:#263238;stroke-linecap:round;stroke-linejoin:round;stroke-miterlimit:10;" d="
					M174.587,289.181c0,0,9.474,2.707,8.12,5.414c-1.353,2.707-7.669,0-7.669,0s13.986,5.865,12.632,8.121
					c-1.353,2.256-4.963,0.902-4.963,0.902s2.707,4.511,0.451,4.06c-2.256-0.451-2.256-0.451-2.256-0.451l-1.354,3.609"/>
			</g>
			<path style="fill:#92E3A9;stroke:#263238;stroke-linecap:round;stroke-linejoin:round;stroke-miterlimit:10;" d="
				M156.402,272.518c0,0,10.074-2.6,16.515-3.812c1.958-0.368,3.579-0.608,4.481-0.608c3.868,0-6.078,6.078-6.078,6.078
				s12.156-7.183,14.366-5.525s-4.42,7.183-4.42,7.183s13.813-3.868,13.813-0.552c0,3.315-7.735,3.868-7.735,3.868l13.813,6.63
				c0,0,4.973,3.868,3.315,3.868c-1.658,0-13.813-2.21-13.813-2.21"/>
		</g>
	</g>
</g>
<g id="Spheres_of_light">
	<g>
		
			<ellipse transform="matrix(0.7071 -0.7071 0.7071 0.7071 28.5512 256.2252)" style="fill:none;stroke:#263238;stroke-linecap:round;stroke-linejoin:round;stroke-miterlimit:10;" cx="323.567" cy="93.648" rx="21.951" ry="21.951"/>
		
			<ellipse transform="matrix(0.7311 -0.6823 0.6823 0.7311 23.1141 245.9428)" style="fill:#D4D4D4;stroke:#FFFFFF;stroke-linecap:round;stroke-linejoin:round;stroke-miterlimit:10;" cx="323.567" cy="93.648" rx="16.58" ry="16.58"/>
		
			<ellipse transform="matrix(0.7071 -0.7071 0.7071 0.7071 28.5512 256.2252)" style="fill:#E3E3E3;" cx="323.567" cy="93.648" rx="13.538" ry="13.538"/>
		
			<ellipse transform="matrix(0.1596 -0.9872 0.9872 0.1596 179.4631 398.1143)" style="fill:#FFFFFF;" cx="323.567" cy="93.648" rx="10.751" ry="10.75"/>
	</g>
	<g>
		
			<ellipse transform="matrix(0.6772 -0.7358 0.7358 0.6772 -160.6686 160.3533)" style="fill:none;stroke:#263238;stroke-linecap:round;stroke-linejoin:round;stroke-miterlimit:10;" cx="102.413" cy="263.284" rx="21.951" ry="21.951"/>
		
			<ellipse transform="matrix(0.6777 -0.7354 0.7354 0.6777 -160.5992 160.176)" style="fill:#D4D4D4;stroke:#FFFFFF;stroke-linecap:round;stroke-linejoin:round;stroke-miterlimit:10;" cx="102.413" cy="263.284" rx="16.58" ry="16.58"/>
		<circle style="fill:#E3E3E3;" cx="102.413" cy="263.284" r="13.538"/>
		<circle style="fill:#FFFFFF;" cx="102.413" cy="263.284" r="10.751"/>
	</g>
	<g>
		
			<circle style="fill:none;stroke:#263238;stroke-linecap:round;stroke-linejoin:round;stroke-miterlimit:10;" cx="402.797" cy="173.428" r="14.388"/>
		
			<circle style="fill:#D4D4D4;stroke:#FFFFFF;stroke-linecap:round;stroke-linejoin:round;stroke-miterlimit:10;" cx="402.797" cy="173.428" r="10.868"/>
		
			<ellipse transform="matrix(0.2306 -0.973 0.973 0.2306 141.1467 525.3687)" style="fill:#E3E3E3;" cx="402.797" cy="173.428" rx="8.873" ry="8.873"/>
		<path style="fill:#FFFFFF;" d="M409.843,173.428c0,3.892-3.155,7.046-7.046,7.046s-7.046-3.155-7.046-7.046
			c0-3.892,3.155-7.046,7.046-7.046S409.843,169.537,409.843,173.428z"/>
	</g>
	<g>
		
			<ellipse transform="matrix(0.2434 -0.9699 0.9699 0.2434 4.4712 439.569)" style="fill:none;stroke:#263238;stroke-linecap:round;stroke-linejoin:round;stroke-miterlimit:10;" cx="283.982" cy="216.919" rx="10.56" ry="10.56"/>
		
			<ellipse transform="matrix(0.2437 -0.9699 0.9699 0.2437 4.4064 439.4876)" style="fill:#D4D4D4;stroke:#FFFFFF;stroke-linecap:round;stroke-linejoin:round;stroke-miterlimit:10;" cx="283.982" cy="216.919" rx="7.976" ry="7.976"/>
		<path style="fill:#E3E3E3;" d="M290.495,216.919c0,3.597-2.916,6.513-6.513,6.513c-3.597,0-6.513-2.916-6.513-6.513
			c0-3.597,2.916-6.513,6.513-6.513C287.579,210.406,290.495,213.322,290.495,216.919z"/>
		<path style="fill:#FFFFFF;" d="M289.154,216.919c0,2.856-2.316,5.172-5.172,5.172c-2.856,0-5.172-2.315-5.172-5.172
			c0-2.856,2.316-5.172,5.172-5.172C286.838,211.747,289.154,214.062,289.154,216.919z"/>
	</g>
	<g>
		
			<ellipse transform="matrix(0.2287 -0.9735 0.9735 0.2287 -0.4447 249.2938)" style="fill:none;stroke:#263238;stroke-linecap:round;stroke-linejoin:round;stroke-miterlimit:10;" cx="157.104" cy="124.928" rx="10.56" ry="10.56"/>
		
			<ellipse transform="matrix(0.229 -0.9734 0.9734 0.229 -0.4768 249.253)" style="fill:#D4D4D4;stroke:#FFFFFF;stroke-linecap:round;stroke-linejoin:round;stroke-miterlimit:10;" cx="157.104" cy="124.928" rx="7.976" ry="7.976"/>
		<path style="fill:#E3E3E3;" d="M163.617,124.927c0,3.597-2.916,6.513-6.513,6.513c-3.597,0-6.513-2.916-6.513-6.513
			s2.916-6.513,6.513-6.513C160.701,118.415,163.617,121.331,163.617,124.927z"/>
		<circle style="fill:#FFFFFF;" cx="157.104" cy="124.927" r="5.172"/>
	</g>
	<g>
		
			<ellipse transform="matrix(0.2287 -0.9735 0.9735 0.2287 -50.1678 475.9203)" style="fill:none;stroke:#263238;stroke-linecap:round;stroke-linejoin:round;stroke-miterlimit:10;" cx="275.263" cy="269.62" rx="10.56" ry="10.56"/>
		
			<ellipse transform="matrix(0.2108 -0.9775 0.9775 0.2108 -46.3268 481.8582)" style="fill:#D4D4D4;stroke:#FFFFFF;stroke-linecap:round;stroke-linejoin:round;stroke-miterlimit:10;" cx="275.263" cy="269.62" rx="7.976" ry="7.976"/>
		<circle style="fill:#E3E3E3;" cx="275.263" cy="269.62" r="6.513"/>
		<circle style="fill:#FFFFFF;" cx="275.263" cy="269.62" r="5.172"/>
	</g>
	<g>
		<path style="fill:none;stroke:#263238;stroke-linecap:round;stroke-linejoin:round;stroke-miterlimit:10;" d="M221.026,259.367
			c0,3.068-2.487,5.555-5.555,5.555c-3.068,0-5.555-2.487-5.555-5.555c0-3.068,2.487-5.555,5.555-5.555
			C218.539,253.812,221.026,256.299,221.026,259.367z"/>
		<path style="fill:#D4D4D4;stroke:#FFFFFF;stroke-linecap:round;stroke-linejoin:round;stroke-miterlimit:10;" d="M219.666,259.367
			c0,2.317-1.879,4.196-4.196,4.196c-2.317,0-4.196-1.879-4.196-4.196c0-2.317,1.879-4.196,4.196-4.196
			C217.788,255.171,219.666,257.049,219.666,259.367z"/>
		<path style="fill:#E3E3E3;" d="M218.897,259.367c0,1.892-1.534,3.426-3.426,3.426c-1.892,0-3.426-1.534-3.426-3.426
			c0-1.892,1.534-3.426,3.426-3.426C217.363,255.941,218.897,257.475,218.897,259.367z"/>
		<path style="fill:#FFFFFF;" d="M218.191,259.367c0,1.503-1.218,2.721-2.721,2.721c-1.503,0-2.721-1.218-2.721-2.721
			c0-1.503,1.218-2.721,2.721-2.721C216.973,256.646,218.191,257.864,218.191,259.367z"/>
	</g>
	<g>
		<path style="fill:none;stroke:#263238;stroke-linecap:round;stroke-linejoin:round;stroke-miterlimit:10;" d="M137.68,170.564
			c0,3.068-2.487,5.555-5.555,5.555s-5.555-2.487-5.555-5.555c0-3.068,2.487-5.555,5.555-5.555S137.68,167.496,137.68,170.564z"/>
		<path style="fill:#D4D4D4;stroke:#FFFFFF;stroke-linecap:round;stroke-linejoin:round;stroke-miterlimit:10;" d="M136.32,170.564
			c0,2.317-1.879,4.196-4.196,4.196s-4.196-1.879-4.196-4.196c0-2.317,1.879-4.196,4.196-4.196S136.32,168.247,136.32,170.564z"/>
		<path style="fill:#E3E3E3;" d="M135.551,170.564c0,1.892-1.534,3.426-3.426,3.426c-1.892,0-3.426-1.534-3.426-3.426
			c0-1.892,1.534-3.426,3.426-3.426C134.017,167.138,135.551,168.672,135.551,170.564z"/>
		<path style="fill:#FFFFFF;" d="M134.845,170.564c0,1.503-1.218,2.721-2.721,2.721s-2.721-1.218-2.721-2.721
			c0-1.503,1.218-2.721,2.721-2.721S134.845,169.062,134.845,170.564z"/>
	</g>
	<g>
		<path style="fill:none;stroke:#263238;stroke-linecap:round;stroke-linejoin:round;stroke-miterlimit:10;" d="M216.91,153.538
			c0,3.068-2.487,5.555-5.555,5.555c-3.068,0-5.555-2.487-5.555-5.555c0-3.068,2.487-5.555,5.555-5.555
			C214.423,147.983,216.91,150.47,216.91,153.538z"/>
		<path style="fill:#D4D4D4;stroke:#FFFFFF;stroke-linecap:round;stroke-linejoin:round;stroke-miterlimit:10;" d="M215.55,153.538
			c0,2.317-1.879,4.196-4.196,4.196c-2.317,0-4.196-1.879-4.196-4.196c0-2.317,1.879-4.196,4.196-4.196
			C213.672,149.342,215.55,151.221,215.55,153.538z"/>
		<path style="fill:#E3E3E3;" d="M214.781,153.538c0,1.892-1.534,3.426-3.426,3.426c-1.892,0-3.426-1.534-3.426-3.426
			c0-1.892,1.534-3.426,3.426-3.426C213.247,150.112,214.781,151.646,214.781,153.538z"/>
		<path style="fill:#FFFFFF;" d="M214.075,153.538c0,1.502-1.218,2.721-2.721,2.721c-1.502,0-2.721-1.218-2.721-2.721
			c0-1.503,1.218-2.721,2.721-2.721C212.857,150.818,214.075,152.036,214.075,153.538z"/>
	</g>
	<g>
		
			<ellipse transform="matrix(0.9249 -0.3802 0.3802 0.9249 -82.915 171.2554)" style="fill:none;stroke:#263238;stroke-linecap:round;stroke-linejoin:round;stroke-miterlimit:10;" cx="392.004" cy="295.492" rx="10.48" ry="10.481"/>
		
			<ellipse transform="matrix(0.9246 -0.3808 0.3808 0.9246 -82.9946 171.5604)" style="fill:#D4D4D4;stroke:#FFFFFF;stroke-linecap:round;stroke-linejoin:round;stroke-miterlimit:10;" cx="392.004" cy="295.492" rx="7.916" ry="7.916"/>
		<path style="fill:#E3E3E3;" d="M398.467,295.492c0,3.57-2.894,6.464-6.464,6.464s-6.464-2.894-6.464-6.464
			c0-3.57,2.894-6.464,6.464-6.464S398.467,291.922,398.467,295.492z"/>
		<path style="fill:#FFFFFF;" d="M397.137,295.492c0,2.835-2.298,5.133-5.133,5.133c-2.835,0-5.133-2.298-5.133-5.133
			c0-2.835,2.298-5.133,5.133-5.133C394.839,290.359,397.137,292.657,397.137,295.492z"/>
	</g>
	<g>
		<path style="fill:none;stroke:#263238;stroke-linecap:round;stroke-linejoin:round;stroke-miterlimit:10;" d="M265.554,330.24
			c0,3.068-2.487,5.555-5.555,5.555c-3.068,0-5.555-2.487-5.555-5.555c0-3.068,2.487-5.555,5.555-5.555
			C263.067,324.685,265.554,327.172,265.554,330.24z"/>
		<path style="fill:#D4D4D4;stroke:#FFFFFF;stroke-linecap:round;stroke-linejoin:round;stroke-miterlimit:10;" d="M264.195,330.24
			c0,2.317-1.879,4.196-4.196,4.196c-2.317,0-4.196-1.879-4.196-4.196c0-2.317,1.879-4.196,4.196-4.196
			C262.316,326.044,264.195,327.923,264.195,330.24z"/>
		<path style="fill:#E3E3E3;" d="M263.425,330.24c0,1.892-1.534,3.426-3.426,3.426c-1.892,0-3.426-1.534-3.426-3.426
			c0-1.892,1.534-3.426,3.426-3.426C261.891,326.814,263.425,328.348,263.425,330.24z"/>
		<path style="fill:#FFFFFF;" d="M262.719,330.24c0,1.503-1.218,2.721-2.721,2.721c-1.503,0-2.721-1.218-2.721-2.721
			c0-1.503,1.218-2.721,2.721-2.721C261.501,327.519,262.719,328.737,262.719,330.24z"/>
	</g>
	<g>
		
			<circle style="fill:none;stroke:#263238;stroke-linecap:round;stroke-linejoin:round;stroke-miterlimit:10;" cx="385.22" cy="244.748" r="5.555"/>
		<path style="fill:#D4D4D4;stroke:#FFFFFF;stroke-linecap:round;stroke-linejoin:round;stroke-miterlimit:10;" d="M389.416,244.748
			c0,2.317-1.879,4.196-4.196,4.196s-4.196-1.879-4.196-4.196c0-2.317,1.879-4.196,4.196-4.196S389.416,242.431,389.416,244.748z"/>
		<path style="fill:#E3E3E3;" d="M388.646,244.748c0,1.892-1.534,3.426-3.426,3.426c-1.892,0-3.426-1.534-3.426-3.426
			c0-1.892,1.534-3.426,3.426-3.426C387.113,241.322,388.646,242.856,388.646,244.748z"/>
		<path style="fill:#FFFFFF;" d="M387.941,244.748c0,1.503-1.218,2.721-2.721,2.721s-2.721-1.218-2.721-2.721
			c0-1.503,1.218-2.721,2.721-2.721S387.941,243.246,387.941,244.748z"/>
	</g>
	<g>
		
			<circle style="fill:none;stroke:#263238;stroke-linecap:round;stroke-linejoin:round;stroke-miterlimit:10;" cx="429.112" cy="325.203" r="5.555"/>
		<path style="fill:#D4D4D4;stroke:#FFFFFF;stroke-linecap:round;stroke-linejoin:round;stroke-miterlimit:10;" d="M433.308,325.203
			c0,2.317-1.879,4.196-4.196,4.196c-2.317,0-4.196-1.879-4.196-4.196c0-2.317,1.879-4.196,4.196-4.196
			C431.43,321.008,433.308,322.886,433.308,325.203z"/>
		<path style="fill:#E3E3E3;" d="M432.538,325.203c0,1.892-1.534,3.426-3.426,3.426c-1.892,0-3.426-1.534-3.426-3.426
			c0-1.892,1.534-3.426,3.426-3.426C431.004,321.777,432.538,323.311,432.538,325.203z"/>
		<path style="fill:#FFFFFF;" d="M431.833,325.203c0,1.503-1.218,2.721-2.721,2.721c-1.503,0-2.721-1.218-2.721-2.721
			c0-1.503,1.218-2.721,2.721-2.721C430.615,322.483,431.833,323.701,431.833,325.203z"/>
	</g>
	<g>
		
			<circle style="fill:none;stroke:#263238;stroke-linecap:round;stroke-linejoin:round;stroke-miterlimit:10;" cx="182.619" cy="348.862" r="5.555"/>
		<path style="fill:#D4D4D4;stroke:#FFFFFF;stroke-linecap:round;stroke-linejoin:round;stroke-miterlimit:10;" d="M186.815,348.862
			c0,2.317-1.879,4.196-4.196,4.196s-4.196-1.879-4.196-4.196c0-2.317,1.879-4.196,4.196-4.196S186.815,346.545,186.815,348.862z"/>
		<path style="fill:#E3E3E3;" d="M186.045,348.862c0,1.892-1.534,3.426-3.426,3.426c-1.892,0-3.426-1.534-3.426-3.426
			c0-1.892,1.534-3.426,3.426-3.426C184.511,345.436,186.045,346.97,186.045,348.862z"/>
		<path style="fill:#FFFFFF;" d="M185.339,348.862c0,1.503-1.218,2.721-2.721,2.721s-2.721-1.218-2.721-2.721
			c0-1.503,1.218-2.721,2.721-2.721S185.339,347.36,185.339,348.862z"/>
	</g>
</g>
<g id="Plants">
	<g>
		<path style="fill:#92E3A9;stroke:#263238;stroke-linecap:round;stroke-linejoin:round;stroke-miterlimit:10;" d="M93.504,466.616
			h9.276v-6.002c0-6.005-3.175-12.01-4.99-16.168c-1.814-4.157,3.175-7.391,5.443-16.168c2.268-8.777-2.722-11.087-4.99-18.016
			c-2.268-6.929,2.268-13.396,2.268-20.787c0-7.391-4.99-20.325-4.99-20.325s0.907,11.548,0,16.168
			c-0.907,4.619-5.443,13.858-4.99,23.097c0.454,9.239,4.083,11.087,4.083,16.168s-3.175,11.087-5.443,18.016
			c-2.268,6.929,2.268,7.853,4.99,15.244C95.398,461.202,94.668,464.267,93.504,466.616z"/>
		<path style="fill:#92E3A9;stroke:#263238;stroke-linecap:round;stroke-linejoin:round;stroke-miterlimit:10;" d="M63.109,428.279
			c2.268,8.777,7.258,12.01,5.443,16.168c-1.814,4.158-4.99,10.163-4.99,16.168v6.002h9.276c-1.164-2.349-1.894-5.414-0.657-8.773
			c2.722-7.391,7.258-8.315,4.99-15.244c-2.268-6.929-5.443-12.934-5.443-18.016s3.629-6.929,4.083-16.168
			c0.454-9.239-4.083-18.478-4.99-23.097c-0.907-4.619,0-16.168,0-16.168s-4.99,12.934-4.99,20.325
			c0,7.391,4.536,13.858,2.268,20.787C65.831,417.192,60.841,419.502,63.109,428.279z"/>
		<path style="fill:#92E3A9;stroke:#263238;stroke-linecap:round;stroke-linejoin:round;stroke-miterlimit:10;" d="M81.46,458.513
			c3.031,3.435,3.809,6.148,3.743,8.103h6.338c0.036-3.17-0.237-8.161-1.916-12.64c-2.722-7.258-5.897-12.248-4.536-21.32
			c1.361-9.072,6.351-14.969,5.443-24.241c-0.907-9.272-9.526-13.862-7.711-22.027c1.814-8.165,4.99-20.413,0.907-29.031
			c-4.083-8.619-2.722-22.681-2.722-22.681s-4.083,7.712-3.629,16.33c0.454,8.619,2.268,9.526,2.268,19.506
			c0,9.979-2.722,8.165-4.082,17.691c-1.361,9.526,2.268,8.619,5.443,18.598c3.175,9.98-0.454,14.516-4.99,25.403
			C71.48,443.09,74.655,450.801,81.46,458.513z"/>
		<path style="fill:#92E3A9;stroke:#263238;stroke-linecap:round;stroke-linejoin:round;stroke-miterlimit:10;" d="M106.862,450.801
			c-1.186,4.745-0.434,11.621,0.23,15.815h10.136c-1.106-2.28-2.461-5.505-3.561-9.464c-2.268-8.165,4.99-11.794,6.804-19.052
			c1.814-7.258-1.814-15.877-7.258-24.495c-5.443-8.619,2.722-24.042,2.722-24.042s-4.536,8.165-8.619,16.784
			c-4.083,8.619,0,9.98,5.443,22.681C118.202,441.729,108.676,443.543,106.862,450.801z"/>
	</g>
	<g>
		<path style="fill:#92E3A9;stroke:#263238;stroke-linecap:round;stroke-linejoin:round;stroke-miterlimit:10;" d="M427.962,466.616
			h5.366v-3.472c0-3.474-1.837-6.948-2.887-9.353s1.837-4.276,3.149-9.353c1.312-5.077-1.574-6.413-2.886-10.422
			c-1.312-4.008,1.312-7.75,1.312-12.025c0-4.276-2.887-11.758-2.887-11.758s0.525,6.681,0,9.353
			c-0.525,2.672-3.149,8.017-2.886,13.361c0.262,5.344,2.362,6.413,2.362,9.353c0,2.939-1.837,6.413-3.149,10.422
			c-1.312,4.008,1.312,4.543,2.886,8.818C429.058,463.484,428.635,465.257,427.962,466.616z"/>
		<path style="fill:#92E3A9;stroke:#263238;stroke-linecap:round;stroke-linejoin:round;stroke-miterlimit:10;" d="M410.38,444.439
			c1.312,5.077,4.199,6.948,3.149,9.353c-1.05,2.405-2.887,5.879-2.887,9.353v3.472h5.366c-0.673-1.359-1.096-3.132-0.38-5.075
			c1.574-4.276,4.199-4.81,2.887-8.818c-1.312-4.008-3.149-7.482-3.149-10.422c0-2.94,2.099-4.008,2.362-9.353
			c0.262-5.344-2.362-10.689-2.887-13.361c-0.525-2.672,0-9.353,0-9.353s-2.886,7.482-2.886,11.758
			c0,4.276,2.624,8.017,1.312,12.025C411.954,438.025,409.068,439.361,410.38,444.439z"/>
		<path style="fill:#92E3A9;stroke:#263238;stroke-linecap:round;stroke-linejoin:round;stroke-miterlimit:10;" d="M420.995,461.928
			c1.754,1.987,2.204,3.557,2.165,4.688h3.667c0.021-1.834-0.137-4.721-1.109-7.312c-1.574-4.199-3.411-7.085-2.624-12.333
			c0.787-5.248,3.674-8.66,3.149-14.023c-0.525-5.364-5.511-8.019-4.461-12.742c1.05-4.723,2.886-11.808,0.525-16.794
			c-2.362-4.986-1.575-13.12-1.575-13.12s-2.362,4.461-2.099,9.447c0.262,4.986,1.312,5.511,1.312,11.284
			c0,5.773-1.574,4.723-2.362,10.234c-0.787,5.51,1.312,4.986,3.149,10.759c1.837,5.773-0.262,8.397-2.886,14.695
			C415.222,453.007,417.059,457.468,420.995,461.928z"/>
		<path style="fill:#92E3A9;stroke:#263238;stroke-linecap:round;stroke-linejoin:round;stroke-miterlimit:10;" d="M435.69,457.468
			c-0.686,2.745-0.251,6.723,0.133,9.149h5.863c-0.64-1.319-1.424-3.185-2.06-5.475c-1.312-4.723,2.887-6.823,3.936-11.021
			c1.05-4.199-1.05-9.184-4.199-14.17c-3.149-4.986,1.574-13.908,1.574-13.908s-2.624,4.723-4.986,9.709
			c-2.362,4.986,0,5.773,3.149,13.12C442.25,452.219,436.739,453.269,435.69,457.468z"/>
	</g>
</g>
<g id="Floor">
	
		<line style="fill:none;stroke:#263238;stroke-linecap:round;stroke-linejoin:round;stroke-miterlimit:10;" x1="36.226" y1="466.616" x2="468.818" y2="466.616"/>
</g>
</svg>
